<svg xmlns="http://www.w3.org/2000/svg" width="940.51" height="278.25" viewBox="0 0 940.51 278.25"><path d="M130.48 106.67a18.22 18.22 0 0 0-1.39 1.39 2 2 0 0 1-2.49.1c-.2-1.79 2.88-1.79 1.89-4l-2.39.29c.1-.79.1-1.59.2-2.88l-3.08 4.18a4.52 4.52 0 0 1 1.89-4.08 7.89 7.89 0 0 0 1.29-9.35 4.62 4.62 0 0 0-.59-.9c-.2-.2-.5-.3-.8-.6-.2.2-.4.5-.79 1-4.28-1.89-8.55 0-12.93.69a33.64 33.64 0 0 0-7.25 2.59c-4.58 1.89-9.15 3.88-13.62 5.86l-2.49 1.36-1.49 8.15c-2.29 13.52-4.57 27-7 40.56a1982.98 1982.98 0 0 1-6.56 35c-.6 3.28-1.59 6.56-2.29 9.84a60.54 60.54 0 0 0-.89 5.77 116.52 116.52 0 0 1-3.78 18.39 10 10 0 0 0-.3 1.69c-.89 9.64-3.58 19-6 28.43-.3 1.09-1.19 2.19-.4 3.48 0 .1-.3.4-.4.6-.39 1.09-1.19 2.28-1 3.28.4 4.37-1.29 8.25-2.49 12.22a10.4 10.4 0 0 1-2.18 4 5.55 5.55 0 0 1 0-1.29c.69-2.59 2-5 1.79-7.66l-1.2 2.29-2.88 5.37a7.19 7.19 0 0 1-3 2.39c-2.09 1-4.08 2.18-6.36 3.47v-4.47c1.39-1 3-1.69 3.87-2.88a16.78 16.78 0 0 0 2.39-5.27c2.09-8.75 4.27-17.5 6.06-26.25 4.28-21.57 8.55-43 12.73-64.61 2.38-12.53 4.47-25 6.86-37.48.69-3.78 1.89-7.46 2.68-11.13s1.29-7.26 1.89-10.94l1.19-5.27c.3-1.09.5-2.29.8-4.07l-4.77 2.38a176.2 176.2 0 0 0-51.5 40.16c-3.97 4.73-7.64 9.85-11.54 14.77a6.43 6.43 0 0 0-1.19 3c-.2 1.69-1.39 2.58-2.49 3.58a3 3 0 0 1-3.88.49 3.16 3.16 0 0 0-1.29.2c-.89-1.19-.89-1.19-.69-2.88l-1.1.3c-.1-.3-.3-.6-.2-.8.4-1.09.5-2-.59-2.78-.2-.1-.4-.2-.4-.4a7.38 7.38 0 0 1-.2-2.09c.4-1.88-.79-3.67.4-5.66 2.68-4.38 5-8.85 7.45-13.22a2 2 0 0 1 .6-.9c2.19-.69 2.19-2.58 2.68-4.37a15 15 0 0 1 1.2-3.38c16.5-29.13 34-57.66 53.78-84.7 2.38-3.18 4.67-6.56 7.85-9.15a8.57 8.57 0 0 1 3.48-2c1.39-.29 2.59-1.88 3.78-3 .79-.59 1.59-1.29 2.39-1.79a3.3 3.3 0 0 1 4.17 0c1.09.9 2.29 1.79 3.48 2.69 2.68 2 3.38 5 3.38 8.15-.2 4.37-.5 8.75-.8 13.12a298.29 298.29 0 0 1-4.27 31.12c-.4 2-.6 4.07-.89 6.46 2.58-.8 5.07-1.39 7.35-2.29 4.57-1.89 9.25-3.58 13.62-5.86 4-2 8.25-2.09 12.43-2.59s10.44 3.78 12 7.66c1.84 4.38.05 11.54-3.73 14.52zm-43.54-67.1a58.36 58.36 0 0 0-5.78 4.67 99.16 99.16 0 0 0-6.56 7.85c-7.15 9.23-14.31 18.49-21.36 27.74a32.73 32.73 0 0 0-5.67 9.54 124.29 124.29 0 0 1-11.53 22.27c-.4.5-.9.9-1.49 1.59-1.2-2.58.69-4.07 1.29-5.76.79-2 2.19-3.78 2.88-5.77s2.89-2.88 2.49-5.17c-1.39 3.08-4.77 4.47-5.67 8.15-.79 3.08-3.08 5.77-4.57 8.65-2.19 4-4.87 7.76-5.67 12.33a5.39 5.39 0 0 1 1 .3c-1.89 4-3.88 8-5.87 12a5.49 5.49 0 0 0-.5 4l1.1-1.09c2.48-3.08 5-6.07 7.45-9.05a24 24 0 0 0 2.59-3 25.9 25.9 0 0 1 10.54-8.5 5.6 5.6 0 0 0 2-1.39 18.79 18.79 0 0 1 4.28-3.68c1.89-1.29 3.58-2.68 5.37-4a25.72 25.72 0 0 1 3.58-2.18c1.59-.9 3.18-1.59 4.87-2.39a11.56 11.56 0 0 0 2.68-.5c5.27-2.38 10.44-4.87 15.71-7.35a1.2 1.2 0 0 0 .49-1.89c-4.47 2.29-8.84 4.57-13.32 6.76a54 54 0 0 1-5.56 2.28c.69-.49 1.39-1.19 2.18-1.69 1.79-1.09 3.68-2.08 5.67-3.08l11.83-6.06c.3-1.59 1.19-3.28.89-4.87-.39-2.69.2-5.17.6-7.76 1.19-8.74 2.49-17.49 3.78-26.34l1.29-9.34a14.36 14.36 0 0 0-1.01-7.27zM55.82 261.25a21.39 21.39 0 0 0-.79 2.59.82.82 0 0 0 .1.7c.59-.9 1.29-1.79.69-3.29zm10.44-52.19a21.35 21.35 0 0 1-1.49-2.08l-2.49 13.12c.8-1.29 1-3 1.89-3.78 1.59-1.39 1.49-3 1.59-4.77a18 18 0 0 1 .5-2.49zm8.45-165.22c.2.2.2.3.3.4a.31.31 0 0 0 .2-.1c.49-.6 1.29-1.09.79-2.58-.59.99-.99 1.69-1.29 2.28zm53.38 54.68c-.39.79-.89 1.49-1.29 2.29a1.85 1.85 0 0 0 1.29-2.29zM318.57 159.56c-1.49-.8-3.08-1.59-4.87-2.49 1.59-1.39 3.18-2.48 3.08-4.77a19.54 19.54 0 0 0-2 .8c.89-1.2 1.49-2.09 2.29-3.19a9.4 9.4 0 0 0-2.49-1.49 33.64 33.64 0 0 0-7.65-1.29 286.79 286.79 0 0 0-42.35 3.28c-3.78.6-7.56 1-11.43 1.39l1.88-.89c-2 .6.1-1.29-.89-1.49-1.29.3-2.59.49-4.08.79l3.18 1.49-10.83 2.39-5.77.89c-2.58.5-4.87-.29-7.75-.89-1.09.4-2.69.79-4.28 1.29a1.27 1.27 0 0 1 .1.6c.7-.1 1.4-.1 2.29-.2-.2.2-.3.4-.4.4-6.56 1.89-13 3.78-19.58 5.76-5.77 1.69-11.43 3.28-17.1 5.17a400.89 400.89 0 0 0-55.76 23.21 188.71 188.71 0 0 0-21 11.92c-1.78 1.2-3.57 2.59-5.46 4 1.79 2.49-1 3.18-1.3 4.77-3.67-.49-4.87-1-6.85-2.68a10.79 10.79 0 0 1 4.47-10c3.48-2.49 7-5.07 10.64-7.26a210.74 210.74 0 0 1 22.36-12 12.6 12.6 0 0 0 6-6.06c2.58-5.27 5.17-10.44 7.65-15.61 1.89-3.88 3.68-7.75 5.57-11.63a17.42 17.42 0 0 1 1.19-1.69 16.1 16.1 0 0 1 1.1-3.08c7.75-16.7 15.6-33.5 23.46-50.2 1.49-3.09 3.28-6.07 4.77-9.25 3.57-7.69 7.05-15.23 10.4-22.89 1.39-3.09 2.38-6.37 3.77-9.55 3.88-9.14 8-18.29 11.64-27.54 2.18-5.46 4-11.13 5.66-16.7.4-1.19 1.59-1.69 1.49-3.28l1.3 3.18c.79-1.49.29-3.57 1.78-4.77.8.5 1.4 1 2.09 1.39 1.2 1.89.7 3.78.2 5.67a174.8 174.8 0 0 1-9 25.25q-13.93 31.62-28.15 62.93c-7.26 16-14.71 31.81-22.27 47.72-4.57 9.74-9.34 19.38-14.21 29.32 2.28.5 3.78-1.49 5.86-1.39a10.18 10.18 0 0 1 .7 1.19c2.68-1.39 5.27-2.68 7.85-4.07l-.1.1a51.59 51.59 0 0 0 12.39-5.37c.3-.1.3-.8.5-1.39 10.83-3.88 22-7.26 33.3-10.24s22.66-5.07 34.2-7.06 23-3.78 34.59-4.37l-5.17 1.78v.3c1.89-.3 3.68-.39 5.47-.79 4-.7 7.95-1.59 11.93-2.29a28.83 28.83 0 0 1 5.86-.1c3.19.2 6.27.5 9.45 1 4.07.49 8.05 1.19 11.63 3.87 0 2.29 2.39 2.59 3.68 3.88 1.93 6.36.04 10.84-5.03 12.23zm-162.94-6.07c1-.79 2-1.59 1.49-3.08zm1.89-9.64a18.51 18.51 0 0 0 .4 2.49c1.09-2.19 2.19-4.28 2.39-6.86-1.1 1.59-1.89 2.98-2.79 4.37zm18.89 26.24c-2.19-1.69-2.29-1.78-3.78-.39a11.66 11.66 0 0 1-4.77 2.78c-.7.2-1.39.6-2.29.9.3.29.5.49.6.49 3.38-1.19 6.76-2.48 10.24-3.78zm47.52-14.51l-5.87 1.29c2.59.3 4.97-.2 5.87-1.29zm30-7.45c-5.27-1-10 1-14.91 2.38 5.19.1 9.96-1.39 14.93-2.38zm16.9-4.68c-1.49-1.49-2.19.5-3.18.4a4.24 4.24 0 0 0-3.18 1 37.53 37.53 0 0 0 5.86-.59c.22-.01.32-.41.52-.81zm35.39 2.49c0-.3-.1-.5-.1-.8-10.24.4-20.58.5-30.72 2.59a65.67 65.67 0 0 0 7.66-.5 92.67 92.67 0 0 1 11.83-1c1.79 0 3.68 0 5.56-.1s3.9-.09 5.79-.19zm8.65.1c-1.29-1-2.58-1.79-4.27-.9zm4.08 5c-.2 1.49-.4 2.88-.7 4.67 1.91-2.02 1.91-2.39.72-4.7zm4-1.69c-1-.6-1.39-2-2.68-1.19a31.93 31.93 0 0 0 .79 3.47 4.85 4.85 0 0 0 1.1 1.69c.28-1.32.48-2.71.78-4zm0 4.67c0-.1-.4-.3-.69-.5-.2.9-.3 1.79-.5 2.69a4.87 4.87 0 0 0 1.18-2.22z" fill="#232323"/><path d="M235.96 139.97c-1.09-2.88-.8-5.86-.6-8.84.6-6.86 3.58-12.93 6.86-18.89.7-1.29 1.19-2.59 1.89-3.88a13.5 13.5 0 0 1 3-4.17c.4.39 1.89.79 2.39 1.19-1 .89-2 1.59-3.28 2.68l1.09.7a13.13 13.13 0 0 0 1.1-1.19c.39-.6 1.29.19 1.49-.6.29-.6.79-.9 1.39-.6.59 1.79.49 2.29-.7 3.38a8.09 8.09 0 0 0-1.29 1.69c-.7 1.1-1.29 2.39-2.09 3.58l-.4-1.09c-1.39 2.88-2.78 5.37-3.87 8.15a8.28 8.28 0 0 0-.2 3.18 4.72 4.72 0 0 1 0 1.19 17.66 17.66 0 0 0-1 5.57 17.69 17.69 0 0 0 .7 7.16 1.77 1.77 0 0 0 .4.89 3.18 3.18 0 0 0 2.88-1.69 1.19 1.19 0 0 0-.6-.2l3-2.58c.69.7-.9 1-1 2a11.56 11.56 0 0 0 3.78.2c-.7.79-1.09 1.59-1.59 2.08-1.19 1-2.49 1.79-3.58 2.69-.3.2-.5.4-.7.5-3.7 2.07-7.68.88-9.07-3.1zm15.61-43.24c-.5 0-1 .3-1.2.1a1.08 1.08 0 0 1-.69-1.09 6.62 6.62 0 0 1 2.18-5.07c1.5.19 2.19 1.09 2.59 2.68.6-1.09 1.29-1.49 2.38-1 .2.89.7 1.79.3 2.78a10 10 0 0 1-2.78 3c-.99.79-1.89.09-2.78-1.4zM264.79 141.86a41.77 41.77 0 0 0-2.69-8.45c-.39-.89-.39-1.89-1.49-2.48-.3-.1-.4-.5-.49-.9a15.21 15.21 0 0 1 1.29-11.23 14.7 14.7 0 0 0 1-1.59c2-4.47 5.57-7 9.84-9 .9-.4 2-.79 2.89-1.29s1.88-1.39 3.18-.8c.3.1.89-.2 1.29-.39 1.59-.6 3.18-1.2 4.77-1.89a2.8 2.8 0 0 0 1.49-1.1c.8-1.09.9-2.38 2-3.48 1-.89 1.19-2.58 1.69-4 .8-1.89 1.39-3.88 2.29-5.77a243.33 243.33 0 0 1 15-28.53c2.58-4 4.87-8.25 7.65-12.13a119.39 119.39 0 0 1 8.55-10.14 16.11 16.11 0 0 1 10-5.27c2.09-.19 4.08-.69 6.07.1a6.9 6.9 0 0 1 1.69.9 49.88 49.88 0 0 1 4.35 5.15 7.36 7.36 0 0 1 1 3.58c.5 4.67-.89 8.94-2.68 13.12a94.47 94.47 0 0 1-9.94 17.1c-1 1.29-2.19 2.38-3.18 3.68a113.79 113.79 0 0 1-16.21 17 14.05 14.05 0 0 0-1.29 1 .6.6 0 0 1-.4.1l-.29-2.39c2.78-3 5.86-6.06 8.74-9.24a83.16 83.16 0 0 0 5-6.86c-2.59.89-3.48 2.88-4.58 4.37-3.38 4.38-7.45 8-11.43 11.93-.7.7-1.49.3-2.39.7-.29-.7-.49-1.39-.89-2.29h1.39l.3-3.28c1.89-1.79 4.08-3.58 6.06-5.67 4.08-4.07 8.25-8.15 12-12.52 5.07-5.87 8.55-12.73 11.53-19.78a15.38 15.38 0 0 0 .7-9.25 6.06 6.06 0 0 0-5.27 1.09 36.49 36.49 0 0 0-6.06 4.88c-3.18 3.38-6 7-9 10.53-1.09 1.3-2.09 2.69-3.38 4.48.1-1 .2-1.59.2-2.09-3 2.68-18 31.31-19.78 37.58.49.2 1 .29 1.59.49a13.29 13.29 0 0 0-2 .2c-.3.6-.5 1.2-.8 1.79a3.93 3.93 0 0 0 .6.2c.89-.2 1.79-.5 2.58-.7a3.5 3.5 0 0 1 4.28 4.78 8.26 8.26 0 0 1-.5 1.29c.8.4 1.59.89 2.59 1.49-.1.4-.4 1.09-.7 2.09a21 21 0 0 1-3.28-5.27l-.4 1.79-1.09-1.89c-.4 0-1-.1-1.69-.1.6 1.39 1.09 2.68 1.69 4a2.2 2.2 0 0 0-.5.29c-.59-.79-1.09-1.59-1.59-2.38-2.88-.6-4.07-.1-5.57 2.28-.19-.29-.29-.69-.59-1.29-2 3.08-2.88 6.46-4.38 9.74.6-.39 1.1-.69 2-1.19l.9 1.69c-2.89 7.36-5.27 15.11-9.05 22.37a21.77 21.77 0 0 1-8.35 8.85c-3.68-.54-5.47-2.72-6.26-6zm17.89-31.91c-2.58 1.39-4.87 2.59-7.16 3.88-.1 0 0 .3 0 .4.5 0 1 .1 1.79.1-2.28 1.88-4.37 3.47-6.36 5.16a16.43 16.43 0 0 0-2.58 2.69c-1.59 2.29-2.09 4.77-.7 7.36a11.26 11.26 0 0 1 .9 2.58c.79 2 1.59 4 2.48 6.36 1.79-2.58 9.74-22.16 11.63-28.53zm34.3-52.69l-.4-.39-.6 1.39.3.2zm6.26-8.55a11.12 11.12 0 0 0 .3-1.39 15.45 15.45 0 0 0-1.19 1.49l.29.3a2.09 2.09 0 0 0 .6-.4zm7-7.45c1.09-.9 2.19-1.69 3.38-2.49-1.49-.39-2.49.5-3.38 1.3-1.09 1.09-2.58 1.88-3.08 3.57a18.05 18.05 0 0 0 3-2.38zm7.92 14.06c-2.08 2.18-4.07 5.76-4.07 7.55a28.8 28.8 0 0 0 4.07-7.55zM315.16 137.19a7.62 7.62 0 0 0 .6-.89c-2-1.4-3.09-3.68-5.57-4.48-.6-.2-1-1-1.49-1.49-.7-.79-1.39-1.69-2-2.48a3.49 3.49 0 0 1-.5-1.3c-.1-.89-.1-1.69-.2-2.58-1.88-.1-4.07 1.49-5.76-.9.1-.69.1-1.59.2-2.58.69-.5 1.39-1 2.08-1.59l-.09.1c2.08.1 4.27.2 6.16-1a4.78 4.78 0 0 0 1.69-1.09 30.26 30.26 0 0 1 6.46-5.37 22.86 22.86 0 0 0 5.57-5.17 8.53 8.53 0 0 1 2.09-2.18q2.54-2 5.07-3.58c2.08-1.39 4.27-2.59 6.46-3.78a3.92 3.92 0 0 1 4.17 0c.9.5 1.79.89 2.59 1.29-.4.3-1.4-.59-1.3 1.1l1.3-1.1c2.88 1.49 3.48 3.38 2.18 6.26a13.47 13.47 0 0 1-3.38 4.48 73 73 0 0 1-12.92 9c-4.47 2.59-9.34 4.18-13.92 6.17-.49.2-1.09.4-1.49.59.1 5.27 3.08 7.66 10.64 8.26-.3-.3-.4-.6-.7-.9a54.82 54.82 0 0 0 6-1.19c1.89-.5 3.78-1.39 5.86-2.09a30.42 30.42 0 0 1 2.79 2c1.88 1.49 1.88 4-.1 5.07a22.92 22.92 0 0 1-11.93 3.28h-3.56c-2.5.03-4.68-1.06-7-1.86zm-4-12c-.89.4-.59 1-.29 1.79.14-.82.29-1.32.34-1.82zm18.49-15.9l-.29-1.2a44.93 44.93 0 0 0-9.6 7.23 31.07 31.07 0 0 0 9.94-6.06zM415.9 141.96a25.26 25.26 0 0 0-1-4.77 10.59 10.59 0 0 1 .1-6.56c1.09-3 2.19-5.87 3.48-9.15-.7.3-1.19.5-1.79.7a13.53 13.53 0 0 0-.2-1.89c2.29-2.29 5.27-3.88 5.57-7.75a235.33 235.33 0 0 1-24.16 19.48c-.1.1 0 .5-.1 1.09a25.55 25.55 0 0 0 5.47-3.08c2.59-2 5-4.07 7.56-6.06a42 42 0 0 1 3.48-2.49 19 19 0 0 1-4.28 7.16c-1.69 1.69-3.38 3.48-5.27 5.07a23.89 23.89 0 0 1-4.07 2.68c-2.19 1.1-3.48.4-3.88-2.18l-.3-1.1c-1.49.8-2.78 1.59-4.08 2.29-2-.89-2.68-2.29-2.18-4.08a37.12 37.12 0 0 1 2-6.76 102.14 102.14 0 0 1 19.68-28 16.36 16.36 0 0 1 1.39-1.29c1-.7 2.29-1 3.08-.3 1.69 1.29 3.88 2.29 4.68 4.67-1.1 1.59-2.29 2.89-4.38 3-.5 0-1.09.6-1.49 1a44.4 44.4 0 0 0-7.66 9.15 63.7 63.7 0 0 0-4.87 10.43l7.36-6.16 10.54-9.35c.89-.79 1.79-1.59 2.68-2.28 2-1.39 2.29-1.39 4.18.3.49.39 1 .69 1.59 1.09a14.85 14.85 0 0 1 .4 2.39c1.69.29 2.18 1.49 2 3a19.06 19.06 0 0 1-1.29 4.67c-2 5-4.17 9.94-6.46 15.31a7.2 7.2 0 0 0 2.88-1.89c3.48-3.48 7.06-6.76 10.24-10.44 6.56-7.55 13-15.31 19.29-23.06 3.78-4.77 7.16-9.74 10.83-14.61.7-1 1.59-2 2.29-2.89 2.39.8 2.68 1 4.08 3.48a27.26 27.26 0 0 0-1.5 2.49c.9.4 1.79.69 2.89 1.09a19.4 19.4 0 0 1-1.2 2.09 265.63 265.63 0 0 1-22.06 28.53 55.26 55.26 0 0 0-3.58 4.67c-2.09 2.59-4.18 5.27-6.47 7.66-4.07 4.17-8.35 8.25-12.52 12.32a28.92 28.92 0 0 1-4 2.89 8.41 8.41 0 0 1-5.17 1.29c-2.19-.37-3.69-1.66-3.78-3.85zm3.67-5.17c-1.39.5-1.88 1.39-1.39 3.18zm1.1-3.58c.89-4.47 1.89-8.84 4.17-12.82a15.19 15.19 0 0 0 1.2-3.78c-2.29 3.18-4 6.56-5.87 9.74-1.79 3-1.29 6.07-1.69 9.35a2.54 2.54 0 0 0 2.19-2.49zm4.47 1.89c1.89-1.69 3.28-4 5.87-4.87 3.38-3.68 6.86-7.16 10.14-10.83 3.08-3.38 6-7 8.94-10.44 1.49-1.69 2.89-3.58 4.38-5.37.59-.9 1.79-1.39 1.89-3.28-.9 1.09-1.59 1.79-2.19 2.48-4.28 4.68-8.55 9.45-12.83 14a139.06 139.06 0 0 1-5.56 5.57c-3.78 3.58-7.66 7.06-11.43 10.63a23.68 23.68 0 0 0-2.09 2.39 4.35 4.35 0 0 1 .4.7 6.22 6.22 0 0 0 2.5-.98zm37.88-42.35c-.2-.2-.4-.3-.5-.49-1.39 1.79-2.68 3.48-4 5.27 2.11-1.1 3.3-2.99 4.5-4.78zM461.83 139.97c-1.1-2.88-.8-5.86-.6-8.84.6-6.86 3.58-12.93 6.86-18.89.69-1.29 1.19-2.59 1.89-3.88a13.34 13.34 0 0 1 3-4.17c.4.39 1.89.79 2.38 1.19-1 .89-2 1.59-3.28 2.68l1.1.7a13 13 0 0 0 1.09-1.19c.4-.6 1.29.19 1.49-.6.3-.6.8-.9 1.39-.6.6 1.79.5 2.29-.69 3.38a7.46 7.46 0 0 0-1.29 1.69c-.7 1.1-1.3 2.39-2.09 3.58l-.4-1.09c-1.39 2.88-2.78 5.37-3.88 8.15a8.48 8.48 0 0 0-.2 3.18 4.72 4.72 0 0 1 0 1.19 17.94 17.94 0 0 0-1 5.57 17.52 17.52 0 0 0 .7 7.16 1.84 1.84 0 0 0 .39.89 3.18 3.18 0 0 0 2.89-1.69 1.19 1.19 0 0 0-.6-.2l3-2.58c.7.7-.89 1-1 2a11.53 11.53 0 0 0 3.78.2c-.7.79-1.1 1.59-1.59 2.08-1.2 1-2.49 1.79-3.58 2.69-.3.2-.5.4-.7.5-3.73 2.07-7.67.88-9.06-3.1zm15.6-43.24c-.49 0-1 .3-1.19.1a1.08 1.08 0 0 1-.7-1.09 6.63 6.63 0 0 1 2.19-5.07c1.49.19 2.19 1.09 2.59 2.68.59-1.09 1.29-1.49 2.38-1 .2.89.7 1.79.3 2.78a10.1 10.1 0 0 1-2.78 3c-1 .79-1.89.09-2.79-1.4zM502.16 145.44l-1 .7c-1.79-.5-1.69-1.89-1.69-3.28a22.5 22.5 0 0 0-3.08-12.13 89.06 89.06 0 0 0-5.17-7.36c-.8-1.09-1.69-2.09-2.58-3.08-2.49-3-2.59-6.16-.7-9.54.1-.1.3-.3.3-.4.59-3.78 3.58-5.47 6.46-6.76 4.27-1.89 8.85-3.28 13.22-4.87.2-.1.5 0 1 0-2.09 2.18-4.88 2.88-7 4.67 2.38-.8 4.87-1.59 7.25-2.49.4-.09.6-.39 1-.49 4-.8 5.66-3.88 7.06-7.26l1.09-1.19c-.1-.1-.2-.1-.2-.2-.3.1-.6.3-.89.4.59-1.4 1.09-2.89 1.78-4.18 4.88-9 9.75-18.09 14.72-27.14.49-.89 1.09-1.59 1.79-2.68.59.89 1.09 1.49 1.59 2.28.49-.49 1-1.09 1.49-1.69 1.59.5 2.88 1.5 2.78 3.29a9.8 9.8 0 0 1-1.19 3.77c-1.89 3.28-4.18 6.46-6 9.75-3.08 5.56-5.86 11.33-8.84 17-.4.8-.7 1.69-1.2 2.69 1.69.2 3.19.4 4.68.69 4.57.6 7.55 3.48 10.14 7.06a2.38 2.38 0 0 1 .3 1.2c0 .49-.2 1-.2 1.49a3.88 3.88 0 0 0 .39 1.39c-1.09 1.09-2.18 1.39-3.38.3a1.53 1.53 0 0 0-1.59-.4c-.49.1-1.29-.6-1.69-1.19a3.93 3.93 0 0 0-4.17-1.89c-2.88.2-5.87.49-9.05.79-1.89 4.77-3.68 9.35-5.37 13.92-2.88 8-5.66 16.1-7 24.46a10.72 10.72 0 0 1-.7 2.38c-.8 1.89-2.09 2.19-3.68.8a2.53 2.53 0 0 1-.67-.81zm-12.1-31.31c-1.3 1.29-.3 2.18.39 3.18.3-.99.71-2.09-.39-3.18zm20.1-6.47c-6.66 1.1-13.92 4.68-15.71 7.76 3 4.07 6.06 8.15 9.15 12.33zM552.69 101.9a18.65 18.65 0 0 1-.5 1.89c3.88-2.59 6.36-6.36 10.74-7.06-.4.5-.9.8-1.79 1.69l5.86-1a2.6 2.6 0 0 1 3 1.19 10.72 10.72 0 0 1 1.89 8 83.31 83.31 0 0 1-1.73 8.51c-2.18 7.85-4.27 15.81-6.46 23.66-1 3.58-2.18 7.16-3.28 10.74-.4 1.09-.79 2.08-1.39 3.48a14.4 14.4 0 0 0-1.49-2.29 11.34 11.34 0 0 1-1.29 2.39c-.1.1-.3 0-.4 0a4 4 0 0 1 0-1.1 14.13 14.13 0 0 1 1.69-3.18c1.59-2.29 2.09-5.07 3-7.65 1.09-3.18 2.29-6.37 3.28-9.65.5-1.89 1.69-3.67 1.59-5.86-.1-1.49.9-2.79 1.29-4.18 1.3-4 2.69-8 2.69-12.22.1-2-.1-4.08-.2-6.07-1.09.8-.8 1.89-1 3a137.09 137.09 0 0 1-4.38 16.61c-2.28 7.25-4.47 14.51-6.76 21.77-.2 1-.69 1.89-1.19 3.38 0-1.3 0-2.09.1-3.48-1 2.08-1.89 3.87-2.89 6.06-.09-.89-.19-1.29-.19-1.69 1.19-3.28 2.28-6.66 3.28-10l1.79-6.16c1.39-4.87 3-9.75 4.27-14.52 1-3.58 1.49-7.35 2.19-10.83a6.56 6.56 0 0 0-.5-4.58c-1.69.1-2.78 1.3-3.88 2.29a65.37 65.37 0 0 0-9 11.83c-3.48 5.57-6.76 11.33-10.24 16.9l-1.63 2.43c-.2-.1-.4-.3-.8-.5-.59 1.19-1.19 2.38-1.79 3.48-1.89-.7-4.07-.7-4.77-3.68 2-5.27 4.18-10.84 6.36-16.3 3.38-8.25 7-16.51 10.14-24.86 4.86-12.22 9.46-24.35 14.33-36.58 2.09-5.47 4.47-10.84 6.66-16.2a4.28 4.28 0 0 1 1.69-2.09c-.5 1.39-1 2.58-1.39 4l.89 1.49c.7-1.89 1.39-3.48 2.19-5.37.79 1.09 1 1.89.3 2.88a65.96 65.96 0 0 0-2.39 3.88 11.47 11.47 0 0 0-.89 2.28c2-1.59 1.79-4.37 4.27-4.67 1.09.5 1 1.29.6 2.29-.9 2.48-1.69 5.07-2.69 7.65a921.62 921.62 0 0 1-7.05 17.6c-.6 1.69-1.6 3.18-2.39 4.87-1.19 3.08-2.29 6.16-3.58 9.35-2.09 5.34-4.07 10.81-6.16 16.18zm16.5 1.09c.79-.89.7-1.39-.4-2.09-.69.9-.1 1.6.37 2.09zM880.16 27.24a7.26 7.26 0 0 1-.9.5c-.69-1.1-1.29-2.09-1.88-3.18a.76.76 0 0 1-.4.2c.4 1.09.79 2.08 1.19 3.28a1.61 1.61 0 0 1-2.48-.8c-1.79-3.18-4.68-4-7.86-4.17-4.27-.4-8.55-.6-12.82-.8-5.57-.2-11-.3-16.5-.79 1.49-.3 3-.7 4.47-1a1.93 1.93 0 0 1-.1-.69c-5.67.19-11.23.29-17.1.49l1.19 1.79c-9.65 1.25-19.09 1.25-28.54 1.89h2.39v.2c-24.46 2.09-48.91 4.27-73.57 6.46-.59 1-2 1.49-2 3.08a.82.82 0 0 1-.4.6c-1.79 1-2.39 2.88-3.28 4.37-2.19 3.78-4.18 7.56-6.26 11.24a2.49 2.49 0 0 0-.6 1.29c-.3 4.57-2.69 8.45-4.08 12.62-2.78 8.45-5.66 16.81-9.14 25l-.3 1.19c1.89-.2 3.58-.3 5.27-.5 3.38-.4 6.66-.79 10-1.09a10.29 10.29 0 0 1 2.48 0 16.26 16.26 0 0 0 4.38-.4 24.52 24.52 0 0 1 7.16-.69c1.49.19 3 1.29 5 2.18 1.19-.2 2.88-.59 4.57-.79 3-.4 6-.6 9-.9a20.4 20.4 0 0 0 3.28-.69 17.17 17.17 0 0 1 11.43 4.67c4 3.38 3.48 7.65.3 11.33-1.69 1.89-3.28 1.59-4.67-.3l-2.59.4c.6-1.09.89-1.79 1.29-2.68-1-1.1-.79-2.69-.2-4.48-1.59-.1-3.08-.29-4.57-.39a136.7 136.7 0 0 0-23 .79c-10.34 1.1-20.78 2.19-31.22 3.38-.69.1-1.39.2-2.29.4-1 2.38-2.08 4.77-3.08 7.26-6.16 14.31-12.32 28.63-18.59 42.94-1.49 3.58-3.18 7.16-4.87 10.64a53.22 53.22 0 0 1-3 5.17 9.92 9.92 0 0 1-2.58 2.38c-2.29 1.3-2.89 1.1-4.88-1l-3.67-.6c-2.69-2.68-3.68-6.46-4.78-10a3.58 3.58 0 0 1 .3-2c1.59 3.58 1.79 7.56 4.77 10.54l-3.87-11.33c-2.79-2.29-2.49-5.87-4-8.85-3.88-8-6.46-16.7-13.12-23.16-1.09-1.09-2.09-2.39-3-3.38a60.21 60.21 0 0 1-11.14-7.06l.9-4.57a5.42 5.42 0 0 1 4.07-4.48c2.89-.79 5.77-1.59 8.75-2.18 7.85-1.49 15.81-3 23.66-4.18a36.11 36.11 0 0 1 8 .1 33.82 33.82 0 0 0 8.35-.89c4.08-.8 8.35-1.3 12.53-2 1.29-.2 2.58-.6 3.88-.8 8.45-20.38 16.3-40.85 26-60.54-.3-.2-.49-.49-.59-.4-4.48.3-9 .6-13.42 1.1-4.18.4-8.36 1-12.53 1.59-6.66.89-13.32 2-20 2.68-2.49.3-5.07 1.1-7.76.3l4.48-1.69c-6-.5-11 .9-16.6 1.89.69.4 1.19.6 1.78.89a12 12 0 0 1-4.87 1.5c-3.08.49-6.06 1.19-9.14 1.88s-6.46 1.1-9.55 2c-5.07 1.49-9.94 3.08-14.91 4.87-2.08.8-4.07 2.09-6.26 3.18-1.79-.59-1.79-.59-2.29-2.68 1.1-.7 2.19-1.49 3.28-2.29l-.69-.89c-1.1.7-2.19 1.39-3.38 2.29-.9-1.2-.6-2.19.5-2.79 2-1.19 3.87-2.18 6-3.18 1.39-.6 2.88-1.19 4.37-1.69s3.09-.69 4.58-1c1.79-.3 3.48-.4 5.27-.7 1.39-.2 2.68-.6 4.07-.79a48.2 48.2 0 0 0 9.38-1.84 3.11 3.11 0 0 1 1.39-.2 8.32 8.32 0 0 0 5.07-1.79l-2.39-.4a7.63 7.63 0 0 1 2-.89c4.57-.9 9.15-1.79 13.72-2.49 4-.6 8-1.49 12-1.29 2 .2 4-.3 6.06-.5v.1a1.74 1.74 0 0 1 1.69-1.19c1.39-.2 2.69-.6 4.08-.7q12.68-1.63 25.35-3c2-.3 4 0 5.86-.2 3-.4 5.87-1.09 9-1.59 1.69-1.69 2.68-4.27 5.37-5.37 1.59 1.29 3.28 2.69 5.57 4.48.39-.1 1.49-.2 2.58-.3 15.21-1.3 30.42-2.69 45.63-3.88s30.62-2 45.83-2.88q4.77-.3 9.54-.3c3.88.1 7.66.3 11.43.6 1 .1 1.89.59 2.89.69a13 13 0 0 0 3.08-.4c-1.09-.49-1.79-.69-2.49-1v-.3c2.39 0 4.87-.1 7.26.1 3.78.1 7.66.4 11.43.7a8.32 8.32 0 0 1 6.46 3.48c.7 1 1.5 1.69 2.19 2.58a5.68 5.68 0 0 1 .4 6.69zM687.69 101.4c-6.36.8-12.23 1.59-18 2.29a8.65 8.65 0 0 1-.7-1.29c-2 .39-4 .79-6 1.09-4.18.6-8.36 1.09-12.43 1.59a39.71 39.71 0 0 0-5 .6c-4.48.89-9 1.89-13.32 2.88a3.52 3.52 0 0 0-1.29.79 1.76 1.76 0 0 0 1.29.4c1.09-.3 2.18-.69 3.18-.89 3.18-.7 6.36-1.29 9.44-1.89a6.46 6.46 0 0 1 1.39 0v.3c-4.27 1.19-8.55 2.28-13.52 3.58 1.4 1 2.29 1.59 3.19 2.18 2.48 1.79 5 3.58 6.56 6.37a43.32 43.32 0 0 0 4.07 6.06c3 3.28 4.67 7.16 6.17 11.13a27.72 27.72 0 0 1 1.19 4c1.19 5.07 2.29 10.24 3.58 16l.4-3.28c.1 0 .19-.09.39-.09.8 2.08 1.49 4.17 2.39 6.46 1.69-1.2 2.38-2.89 3.18-4.38 2.78-5.66 5.57-11.23 8.05-17 5-11.23 9.74-22.66 14.62-34a23.73 23.73 0 0 0 1.17-2.9zm-17 47.52c.3-1.19.7-2.39 1.09-3.58-.2 0-.29-.1-.49-.1l-8.06 17.8c1.1.49 1.6-.3 2.19-.9 2.59-2.68 3.88-6.16 5.17-9.64a1.59 1.59 0 0 0 .2-1.09c-1.39-.8-.3-1.69-.1-2.49zm9.54-23.46c-1.69 1.89-4.37 8-5.46 11.83a16.43 16.43 0 0 0-2.49 6.46 18.35 18.35 0 0 0 2.68-6.26 4.3 4.3 0 0 0 .9-1c1.29-2.78 2.48-5.66 3.68-8.55a12.63 12.63 0 0 0 .69-2.48zm1.49-96.73c-1.59-.2-3.18-.59-4.67.3 0 .2 0 .4.1.4a10.21 10.21 0 0 0 4.57-.7zM818.51 17.2c-.39-1.39-1.19-1.29-2.08-1.29-2.39.2-4.87.3-7.26.5-7.56.49-15 1.39-22.57 1.59-6.66.1-13.22 1-19.88 1.59a20.19 20.19 0 0 0-2.29.29v.44c5.17-.1 10.34.2 15.41-.3a56 56 0 0 0 7.06-.69c3.08-.6 6.26-.4 9.35-.6 3.67-.1 7.25-.2 10.93-.4h.2c3.08.7 6.16 0 9.15-.29a8.23 8.23 0 0 0 1.98-.84zm-28.63 6.06c-3.18 0-6.36.1-9.54.1a2.77 2.77 0 0 0 .1.9c3.18.4 6.36-.3 9.44-1z" fill="#232323"/><path d="M744.85 108.66a6.21 6.21 0 0 1-4.37 5.57c-.4-.6-.9-1.2-1.29-1.89-.2 0-.3-.1-.5-.1-.89-.1-1.89.89-2.78-.1-.1-.1-.8.2-1.2.4a41.67 41.67 0 0 0-12.62 8.45v-.1a34.41 34.41 0 0 1-2.79 3.87c-1.39 1.79-3.08 3.28-4.57 5a17.81 17.81 0 0 0-2.48 3.78 85.05 85.05 0 0 1-4.28 7.66l-3.58-2c-.39-1.49-.89-3.18-1.29-5 4.18-11.34 10.24-22 13.72-33.8l3.08 1.49c-.1.6-.1 1.29-.2 2.09.9.2 1.79.29 3 .49-.49 2.19-1 4.18-1.59 6.47.7-.5 1.3-.9 1.79-1.3a26.68 26.68 0 0 1 12.43-6.16 10.49 10.49 0 0 1 3.48-.3 2.18 2.18 0 0 1 1.59.9c.7.69 1.19 1.69 1.89 2.48.3.3 1 .2 1.49.4a1.54 1.54 0 0 1 1.07 1.7zm-22.76 12.23a6.21 6.21 0 0 1-.3-1c-2.68 1.59-4.57 3.88-6.56 6.07-.4.39-.4 1.19-.7 2.48 2.29-2.48 4-4.57 5.87-6.56a11.63 11.63 0 0 1 1.69-.99zm18-15.91c-1.49-1.19-2.58-.7-3.68-.5a29.22 29.22 0 0 0-11.83 5.47c5.36-1.79 10.23-3.28 15.5-4.97zM746.94 139.97c-1.09-2.88-.79-5.86-.6-8.84.6-6.86 3.58-12.93 6.86-18.89.7-1.29 1.2-2.59 1.89-3.88a13.37 13.37 0 0 1 3-4.17c.39.39 1.88.79 2.38 1.19-1 .89-2 1.59-3.28 2.68l1.09.7a13.13 13.13 0 0 0 1.1-1.19c.4-.6 1.29.19 1.49-.6.3-.6.79-.9 1.39-.6.6 1.79.5 2.29-.7 3.38a8.09 8.09 0 0 0-1.29 1.69c-.69 1.1-1.29 2.39-2.09 3.58l-.39-1.09c-1.4 2.88-2.79 5.37-3.88 8.15a8.28 8.28 0 0 0-.2 3.18 4.72 4.72 0 0 1 0 1.19 17.94 17.94 0 0 0-1 5.57 17.69 17.69 0 0 0 .69 7.16 1.77 1.77 0 0 0 .4.89 3.17 3.17 0 0 0 2.88-1.69 1.17 1.17 0 0 0-.59-.2l3-2.58c.7.7-.9 1-1 2a11.48 11.48 0 0 0 3.77.2c-.69.79-1.09 1.59-1.59 2.08-1.19 1-2.48 1.79-3.58 2.69-.3.2-.49.4-.69.5-3.69 2.07-7.67.88-9.06-3.1zm15.61-43.24c-.5 0-1 .3-1.19.1a1.08 1.08 0 0 1-.7-1.09 6.63 6.63 0 0 1 2.19-5.07c1.49.19 2.18 1.09 2.58 2.68.6-1.09 1.29-1.49 2.39-1 .2.89.69 1.79.3 2.78a10 10 0 0 1-2.79 3c-.99.79-1.89.09-2.78-1.4z" fill="#232323"/><path d="M775.77 137.19a7.62 7.62 0 0 0 .6-.89c-2-1.4-3.09-3.68-5.57-4.48-.6-.2-1-1-1.49-1.49-.7-.79-1.39-1.69-2-2.48a3.49 3.49 0 0 1-.5-1.3c-.1-.89-.1-1.69-.2-2.58-1.88-.1-4.07 1.49-5.76-.9.1-.69.1-1.59.2-2.58.69-.5 1.39-1 2.09-1.59l-.1.1c2.08.1 4.27.2 6.16-1a4.78 4.78 0 0 0 1.69-1.09 30.51 30.51 0 0 1 6.46-5.37 22.86 22.86 0 0 0 5.57-5.17 8.53 8.53 0 0 1 2.09-2.18q2.53-2 5.07-3.58c2.08-1.39 4.27-2.59 6.46-3.78a3.92 3.92 0 0 1 4.17 0c.9.5 1.79.89 2.59 1.29-.4.3-1.39-.59-1.29 1.1l1.29-1.1c2.88 1.49 3.48 3.38 2.18 6.26a13.47 13.47 0 0 1-3.38 4.48 73 73 0 0 1-12.92 9c-4.47 2.59-9.34 4.18-13.92 6.17-.49.2-1.09.4-1.49.59.1 5.27 3.08 7.66 10.64 8.26-.3-.3-.4-.6-.7-.9a54.82 54.82 0 0 0 6-1.19c1.89-.5 3.78-1.39 5.86-2.09a30.42 30.42 0 0 1 2.79 2c1.89 1.49 1.89 4-.1 5.07a22.92 22.92 0 0 1-11.93 3.28h-3.58c-2.51.03-4.69-1.06-6.98-1.86zm-4-12c-.89.4-.59 1-.29 1.79.12-.82.22-1.32.31-1.82zm18.49-15.9l-.29-1.2a44.93 44.93 0 0 0-9.65 7.26 31.07 31.07 0 0 0 9.96-6.09zM846.16 119.89c-1.79 6.76-3.48 13.42-5.17 20.18l-1.2 4.68a5 5 0 0 0-.1 2.68 4.84 4.84 0 0 1-1.59 5.07c-1.19.6-2.68.89-3.87-.5-.3-.4-.8-.49-1.2-.69-1.89-.9-2.38-1.79-2-3.78l2.59-10.64c.7-3 1.49-5.86 2.39-8.85.39-1.69.59-3.57 2-5a1.63 1.63 0 0 0 .5-1.19 20.84 20.84 0 0 0 .9-3.58 17.88 17.88 0 0 0-.2-3.18 6.94 6.94 0 0 0-4.38.8 62.12 62.12 0 0 0-21.27 16 5.45 5.45 0 0 1-2 1.69c-1.49.6-2.29-.1-2.19-1.69.3-2 .8-4 1.29-6 .9-4.18 3.09-8 5-11.73l2.68-5.07c-.2 0-.6.1-1.09.1 1.79-3.38 3.48-6.76 6.26-9.65a11 11 0 0 1 1.49 1.49c-.89.8-1.69 1.49-2.49 2.29 1.1 1.79.7 3.78.3 5.77 1.49-2.19 3.08-4 4.58-6.27a5.85 5.85 0 0 1 .2 1.3c0 .39-.5.89-.4 1 1.29 2-.2 3.18-1.3 4.47a10.8 10.8 0 0 0-1.59 3.38l5.37-2.68c-.4 1.09-.59 1.49-.89 2.39 1.49-.5 2.88-1 4.37-1.6a6.23 6.23 0 0 0-1.19-.79c3.78-5.27 9.94-3.38 12.33.1a11.33 11.33 0 0 1 1.87 9.5zm-26.85-12.52a6.71 6.71 0 0 1-.79 1c-.1.2 0 .4 0 .7.69-.31 1.39-.75.79-1.7zM922.8 54.88c-1.79 5.86-4.67 11.23-7.65 16.5a231.17 231.17 0 0 1-14.22 22.37 5.9 5.9 0 0 0-.79 1.39 300.13 300.13 0 0 0-10.84 29.23 2.59 2.59 0 0 1-.1.69c1.09 1.19 2.19 2.49 3.28 3.78a28.41 28.41 0 0 1-5.47 10.64c-1.49 1.89-3 2.08-5.17 1-.19-.1-.49-.4-.69-.3a1.83 1.83 0 0 1-2.09-.79 4.64 4.64 0 0 1-.5-2.59 43 43 0 0 1 1.2-7.16c.89-3.08 2.08-6.16 3.08-9.14a9.26 9.26 0 0 0 .69-3.38c-.59.6-1.19 1.19-1.69 1.79-5.76 6.56-11.63 12.82-18.49 18.19a29.07 29.07 0 0 1-8.15 4.77c-3 1.2-5.66.1-8.25-1.09-1.59-.8-2-2.29-1.89-4.18.4-5.27 2.69-9.84 5.57-14.11a59 59 0 0 1 25.85-21.67 24.72 24.72 0 0 1 10.83-2.19c2.69-3.88 5.87-7.36 7.66-11.73 2.19-5.18 4.67-10.25 7.19-15.22a71.07 71.07 0 0 1 4.38-7.46c.59-1 1.79-1.39 2.38-2.68 1.59-3.08 3.48-6 4.68-9.25.79-2.28 1.79-3.28 3.87-4.87l.7 1.59c3.54-.1 5.72 2.49 4.63 5.87zm-71.18 75.85l-.29-1c-.1.1-.3.1-.4.2l.3.9c.19 0 .29-.1.39-.1zm1.69-4.38c-.79.4-1 1.2-1.29 2l.5.3zm.7-1.49a4.87 4.87 0 0 0-.4 1.1l.8-.9c-.1-.1-.25-.1-.4-.2zm23.66-14.61c-7.26 2.58-19.39 13.12-23.56 22.17 9.54-6.1 16.7-14.02 23.56-22.17zm-20.58 11.53c.2-.4.4-.6.6-1-.53.11-1.1.01-.6 1zm.8-1.19c.39-.3 1.39-.4.49-1.69zm21.37-9.45a96.26 96.26 0 0 0-10.74 12.43l.5.5c1.89-2 3.68-4.08 5.57-6.07 4.27-4.68 4.47-4.87 4.67-6.86z" fill="#232323"/><path d="M888.41 139.18c.89-1.29.59-2.79 1.39-4.08.59-1 1-1.69 2.18-1.69 3.09-.1 6.17-.59 9.15-.2 3.38.5 6.26-.49 9.24-1.59 5.77-2.38 6.07-3.87 5.37-9.64-.29-2.19-1.09-4.37-1.49-6.56-.5-2.78-1.59-5.57-.89-8.85.2.8.3 1.19.49 1.79 3.58-5.67 9-8.55 15.21-10.44a4.78 4.78 0 0 1-.49-.69l.1-.4c2.38-.7 5.17-1.69 7.35-.1 2 1.29 4.68 2.68 4.48 6.06a3.64 3.64 0 0 1-3.78 2.69c-.2-.4-.3-.9-.5-1.2-5.47.3-10.83.7-15.9 3.58 0 .1-.1.5-.1.8l1.49 14.51c.2 1.79.49 3.58.69 5.37a5.88 5.88 0 0 1 0 2.29c-1.69 4.47-4.47 7.65-9.24 9.14a39.5 39.5 0 0 1-12.73 1.69 26 26 0 0 0-4.87.4c-2.88.2-4.97-1.29-7.15-2.88zm28.82-32.81a.33.33 0 0 0-.09-.2l-.3.3c0 .1.1.2.2.3 0-.1.12-.2.19-.4z" fill="#232323"/></svg>
