<?xml version="1.0" standalone="no"?>
<!DOCTYPE svg PUBLIC "-//W3C//DTD SVG 1.1//EN" "http://www.w3.org/Graphics/SVG/1.1/DTD/svg11.dtd" >
<svg xmlns="http://www.w3.org/2000/svg" xmlns:xlink="http://www.w3.org/1999/xlink" version="1.1">
<metadata></metadata>
<defs>
<font id="stereonicxs" horiz-adv-x="1658" >
<font-face units-per-em="2048" ascent="1536" descent="-512" />
<missing-glyph horiz-adv-x="471" />
<glyph horiz-adv-x="0" />
<glyph horiz-adv-x="682" />
<glyph unicode=" "  horiz-adv-x="471" />
<glyph unicode="&#x09;" horiz-adv-x="471" />
<glyph unicode="&#xa0;" horiz-adv-x="471" />
<glyph unicode="!" horiz-adv-x="430" d="M164 41q0 22 14.5 36.5t36.5 14.5t36.5 -14.5t14.5 -36.5t-14.5 -36.5t-36.5 -14.5t-36.5 14.5t-14.5 36.5zM199 389v1045h30v-1045h-30z" />
<glyph unicode="&#x22;" horiz-adv-x="522" d="M143 1061v373h31v-373h-31zM348 1061v373h31v-373h-31z" />
<glyph unicode="#" horiz-adv-x="1617" d="M82 420v31h350l209 573h-338v31h350l138 379h32l-137 -379h479l138 379h32l-137 -379h338v-31h-350l-209 -573h336v-31h-346l-154 -420h-33l154 420h-479l-154 -420h-33l154 420h-340zM465 451h479l209 573h-479z" />
<glyph unicode="$" horiz-adv-x="942" d="M92 375h31q0 -146 101.5 -250.5t242.5 -104.5t241.5 102t100.5 243q0 82 -62 170t-163 151l-277 170q-70 42 -112.5 117t-42.5 153q0 126 88 219t213 99v194h30v-194q126 -6 214.5 -98.5t88.5 -219.5h-30q0 118 -84 202.5t-203 84.5t-203 -84.5t-84 -202.5q0 -70 38 -136 t102 -105l280 -174q106 -66 172 -161.5t66 -184.5q0 -152 -104.5 -260.5t-252.5 -114.5v-195h-30v195q-151 6 -256 118t-105 267z" />
<glyph unicode="%" horiz-adv-x="1523" d="M61 999v154q0 119 72 203t172 84q102 0 174 -83.5t72 -203.5v-154q0 -121 -72 -203.5t-174 -82.5q-101 0 -172.5 83t-71.5 203zM92 999q0 -108 62.5 -182t150.5 -74q90 0 152.5 74t62.5 182v154q0 107 -63 181.5t-152 74.5q-88 0 -150.5 -74.5t-62.5 -181.5v-154z M281 -88l938 1624l26 -14l-938 -1624zM973 276v154q0 119 72 203t172 84q102 0 173.5 -83.5t71.5 -203.5v-154q0 -121 -71.5 -203.5t-173.5 -82.5q-101 0 -172.5 83t-71.5 203zM1004 276q0 -108 62.5 -182t150.5 -74q90 0 152.5 74t62.5 182v154q0 107 -63 181.5t-152 74.5 q-88 0 -150.5 -74.5t-62.5 -181.5v-154z" />
<glyph unicode="&#x26;" horiz-adv-x="1228" d="M92 416q0 143 89.5 255t226.5 146q-97 34 -158.5 117.5t-61.5 181.5q0 135 99.5 231.5t238.5 96.5t238.5 -96.5t99.5 -231.5h-30q0 123 -91 210t-217 87q-127 0 -217 -87t-90 -210q0 -65 36 -130.5t102.5 -110t142.5 -44.5h282v-30h-272q-158 0 -272.5 -113.5 t-114.5 -271.5q0 -163 118.5 -279.5t284.5 -116.5t285 116.5t119 279.5v413h258v-30h-227v-383q0 -175 -127.5 -300.5t-307.5 -125.5t-307 125.5t-127 300.5z" />
<glyph unicode="'" horiz-adv-x="317" d="M143 1061v373h31v-373h-31z" />
<glyph unicode="(" horiz-adv-x="374" d="M102 717q0 138 21 273t51 229t60.5 169t51.5 112l21 36l27 -14q-8 -13 -21.5 -38t-48.5 -106.5t-61.5 -169.5t-48 -222t-21.5 -269t20.5 -267t50.5 -224.5t59.5 -166t50.5 -109.5l20 -36l-27 -16q-8 13 -22 38t-49.5 108t-62.5 172.5t-49 226t-22 274.5z" />
<glyph unicode=")" horiz-adv-x="374" d="M41 -86q8 13 21.5 37.5t48.5 106t61.5 169.5t48 221.5t21.5 268.5t-20.5 267.5t-50 225t-59.5 166t-50 110.5l-21 36l27 14q8 -13 22 -38t49 -108t62 -172.5t49 -226t22 -274.5t-21 -273t-51 -229t-60 -169t-51 -112l-21 -36z" />
<glyph unicode="*" horiz-adv-x="757" d="M102 1221l9 28l254 -82v267h30v-267l250 82l10 -26l-254 -86l156 -213l-25 -19l-155 213l-154 -211l-26 17l157 215z" />
<glyph unicode="+" horiz-adv-x="1064" d="M143 705v30h375v375h31v-375h373v-30h-373v-373h-31v373h-375z" />
<glyph unicode="," horiz-adv-x="389" d="M143 41q0 22 15 36.5t37 14.5t36.5 -14.5t14.5 -36.5q0 -9 -4 -21v-2l-64 -133h-33l48 105q-21 0 -35.5 15t-14.5 36z" />
<glyph unicode="-" horiz-adv-x="573" d="M143 705v30h287v-30h-287z" />
<glyph unicode="." horiz-adv-x="389" d="M143 41q0 22 15 36.5t37 14.5t36.5 -14.5t14.5 -36.5t-14.5 -36.5t-36.5 -14.5t-37 14.5t-15 36.5z" />
<glyph unicode="/" horiz-adv-x="620" d="M0 -92l592 1628l29 -10l-592 -1628z" />
<glyph unicode="0" horiz-adv-x="1208" d="M123 553v328q0 114 38.5 218t103 179.5t153.5 120.5t186 45t186 -45t153.5 -120.5t103 -179.5t38.5 -218v-328q0 -114 -38.5 -218t-103 -179.5t-153.5 -120.5t-186 -45t-186 45t-153.5 120.5t-103 179.5t-38.5 218zM154 553q0 -144 60.5 -267t164 -194.5t225.5 -71.5 t226 71.5t164.5 194.5t60.5 267v328q0 144 -60.5 266.5t-164.5 194t-226 71.5t-225.5 -71.5t-164 -194t-60.5 -266.5v-328z" />
<glyph unicode="1" horiz-adv-x="657" d="M82 1292v33l313 109h17v-1434h-31v1397z" />
<glyph unicode="2" horiz-adv-x="1093" d="M123 0v16l635 701q164 179 164 342q0 146 -109.5 250t-263.5 104q-155 0 -266 -117.5t-111 -281.5h-31q0 178 119 304t287 126q167 0 286 -112.5t119 -270.5q0 -178 -174 -367l-602 -663h795v-31h-848z" />
<glyph unicode="3" horiz-adv-x="1034" d="M61 440h31q0 -173 123.5 -296.5t296.5 -123.5t296.5 123.5t123.5 296.5q0 175 -121.5 296.5t-298.5 121.5q-27 0 -43 -2l-18 29l360 518h-623v31h660v-31l-356 -512q210 0 340.5 -130t130.5 -321q0 -186 -132.5 -318t-318.5 -132t-318.5 132t-132.5 318z" />
<glyph unicode="4" horiz-adv-x="1046" d="M41 317v21l760 1096h16v-1086h117v-31h-117v-317h-31v317h-745zM84 348h702v1012z" />
<glyph unicode="5" horiz-adv-x="1034" d="M72 451h30q0 -178 120.5 -304.5t289.5 -126.5t289.5 123.5t120.5 296.5t-128.5 296.5t-308.5 123.5q-65 0 -144.5 -27.5t-127.5 -66.5l-29 16l101 652h530v-31h-504l-92 -594q56 36 129.5 59t134.5 23q193 0 331 -132.5t138 -318.5q0 -122 -59 -225.5t-160.5 -164 t-220.5 -60.5t-220.5 62t-160.5 168t-59 231z" />
<glyph unicode="6" horiz-adv-x="1167" d="M123 451q0 162 100 286l516 697h37l-438 -594q110 71 246 71q189 0 324.5 -135t135.5 -325t-135.5 -325.5t-324.5 -135.5q-125 0 -231 62t-168 168t-62 231zM154 451q0 -179 126 -305t304 -126t304 126t126 305t-126 304.5t-304 125.5q-98 0 -185 -42.5t-147 -115.5 l-4 -4q-94 -118 -94 -268z" />
<glyph unicode="7" horiz-adv-x="931" d="M82 1403v31h768v-21l-514 -1413h-33l512 1403h-733z" />
<glyph unicode="8" horiz-adv-x="1052" d="M92 414q0 137 96.5 255.5t231.5 147.5q-103 34 -167.5 115.5t-64.5 181.5q0 135 99.5 232.5t238.5 97.5t238.5 -97.5t99.5 -232.5q0 -100 -64.5 -181.5t-166.5 -115.5q135 -29 231.5 -147.5t96.5 -255.5q0 -174 -128 -299t-307 -125t-306.5 125t-127.5 299zM123 416 q0 -163 118.5 -279.5t284.5 -116.5t285 116.5t119 279.5q0 158 -119 270.5t-285 112.5t-284.5 -112t-118.5 -271zM219 1116q0 -114 90 -200.5t217 -86.5t217.5 86.5t90.5 200.5q0 123 -90 210t-218 87q-127 0 -217 -87t-90 -210z" />
<glyph unicode="9" horiz-adv-x="1167" d="M123 983q0 190 136 325.5t325 135.5q190 0 325 -135t135 -326q0 -163 -100 -287l-516 -696h-37l438 594q-112 -72 -245 -72q-189 0 -325 135.5t-136 325.5zM154 983q0 -179 126 -304.5t304 -125.5q98 0 184.5 42.5t146.5 115.5l5 4q94 118 94 268q0 179 -126 304.5 t-304 125.5t-304 -125.5t-126 -304.5z" />
<glyph unicode=":" horiz-adv-x="389" d="M143 41q0 22 15 36.5t37 14.5t36.5 -14.5t14.5 -36.5t-14.5 -36.5t-36.5 -14.5t-37 14.5t-15 36.5zM143 983q0 22 15 36.5t37 14.5t36.5 -14.5t14.5 -36.5t-14.5 -36.5t-36.5 -14.5t-37 14.5t-15 36.5z" />
<glyph unicode=";" horiz-adv-x="389" d="M143 41q0 22 15 36.5t37 14.5t36.5 -14.5t14.5 -36.5q0 -9 -4 -21v-2l-64 -133h-33l48 105q-21 0 -35.5 15t-14.5 36zM143 983q0 22 15 36.5t37 14.5t36.5 -14.5t14.5 -36.5t-14.5 -36.5t-36.5 -14.5t-37 14.5t-15 36.5z" />
<glyph unicode="&#x3c;" horiz-adv-x="1064" d="M143 698v29l779 363v-33l-736 -344l736 -344v-33z" />
<glyph unicode="=" horiz-adv-x="1064" d="M143 541v30h779v-30h-779zM143 868v31h779v-31h-779z" />
<glyph unicode="&#x3e;" horiz-adv-x="1064" d="M143 336v33l736 344l-736 344v33l779 -363v-29z" />
<glyph unicode="?" horiz-adv-x="970" d="M82 1038q0 167 122 286.5t292 119.5t291.5 -119.5t121.5 -286.5q0 -158 -110 -272.5t-267 -120.5v-256h-30v281l14 6q149 0 256 106.5t107 255.5q0 155 -112.5 265t-270.5 110t-270.5 -110t-112.5 -265h-31zM463 41q0 22 14.5 36.5t36.5 14.5t36.5 -14.5t14.5 -36.5 t-14.5 -36.5t-36.5 -14.5t-36.5 14.5t-14.5 36.5z" />
<glyph unicode="@" horiz-adv-x="1740" d="M141 717q0 196 98 363.5t265.5 265.5t363.5 98t363.5 -98t265.5 -265.5t98 -363.5q0 -180 -84 -338q-11 -18 -16 -31h-246v369q0 157 -111 268t-268 111t-267.5 -111t-110.5 -268t110.5 -268t267.5 -111q98 0 182 47t136 125v-51q-58 -71 -141.5 -111.5t-176.5 -40.5 q-169 0 -289 120.5t-120 289.5t120 289t289 120t289.5 -120t120.5 -289v-338h197q88 160 88 338q0 141 -55.5 270t-149 222t-222.5 148.5t-270 55.5q-188 0 -348.5 -93.5t-254 -254t-93.5 -348.5q0 -141 55.5 -270t148.5 -222.5t222 -149t270 -55.5q188 0 357 99l14 -27 q-168 -102 -371 -102q-196 0 -363.5 98t-265.5 265.5t-98 363.5z" />
<glyph unicode="A" horiz-adv-x="909" d="M41 0l397 1434h33l397 -1434h-32l-86 311h-590l-86 -311h-33zM168 342h573l-286 1032z" />
<glyph unicode="B" horiz-adv-x="1013" d="M205 0v1434h215q155 0 256.5 -92t101.5 -226q0 -99 -61.5 -179t-161.5 -116q158 -28 262.5 -142t104.5 -263q0 -172 -133 -294t-322 -122h-262zM236 31h231q175 0 299.5 113.5t124.5 271.5t-124.5 270.5t-299.5 112.5h-231v-768zM236 829h184q135 0 231.5 84.5 t96.5 202.5q0 120 -93.5 203.5t-234.5 83.5h-184v-574z" />
<glyph unicode="C" horiz-adv-x="1431" d="M102 717q0 197 97.5 364.5t265 265t364.5 97.5q146 0 278 -55t232 -154l-24 -21q-95 94 -221 146.5t-265 52.5q-188 0 -348.5 -93t-254 -253.5t-93.5 -349.5q0 -142 55.5 -271t148.5 -222.5t222 -148.5t270 -55q138 0 264 52t222 145l22 -20q-101 -98 -231.5 -152.5 t-276.5 -54.5q-197 0 -364.5 97.5t-265 265t-97.5 364.5z" />
<glyph unicode="D" horiz-adv-x="1433" d="M205 0v1434h399q147 0 281.5 -57t232 -153t155.5 -229t58 -278q0 -193 -98 -358.5t-265.5 -262t-363.5 -96.5h-399zM236 31h368q141 0 270 54.5t222 146.5t148.5 219t55.5 266t-55 266t-148 219t-222 146.5t-271 54.5h-368v-1372z" />
<glyph unicode="E" horiz-adv-x="905" d="M205 0v1434h598v-31h-567v-778h485v-31h-485v-563h567v-31h-598z" />
<glyph unicode="F" horiz-adv-x="884" d="M205 0v1434h598v-31h-567v-778h485v-31h-485v-594h-31z" />
<glyph unicode="G" horiz-adv-x="1421" d="M102 717q0 197 97.5 364.5t265 265t364.5 97.5q146 0 278 -55t232 -154l-22 -21q-97 94 -223 146.5t-265 52.5q-188 0 -348.5 -93t-254 -253.5t-93.5 -349.5q0 -142 55.5 -271t148.5 -222.5t222 -148.5t270 -55q137 0 261 50t219 141v405h-418v31h448v-450 q-100 -98 -231.5 -152.5t-278.5 -54.5q-197 0 -364.5 97.5t-265 265t-97.5 364.5z" />
<glyph unicode="H" horiz-adv-x="1177" d="M205 0v1434h31v-809h706v809h31v-1434h-31v594h-706v-594h-31z" />
<glyph unicode="I" horiz-adv-x="440" d="M205 0v1434h31v-1434h-31z" />
<glyph unicode="J" horiz-adv-x="1054" d="M102 373h31q0 -146 104 -249.5t250 -103.5t249.5 103.5t103.5 249.5v1030h-451v31h481v-1061q0 -158 -112.5 -270.5t-270.5 -112.5q-103 0 -191.5 51.5t-140.5 139.5t-53 192z" />
<glyph unicode="K" horiz-adv-x="835" d="M205 0v1434h31v-1434h-31zM307 739l430 695h37l-430 -695l451 -739h-35z" />
<glyph unicode="L" horiz-adv-x="843" d="M205 0v1434h31v-1403h567v-31h-598z" />
<glyph unicode="M" horiz-adv-x="1402" d="M205 0v1434h31l466 -992l465 992h31v-1434h-31v1360l-454 -967h-21l-456 967v-1360h-31z" />
<glyph unicode="N" horiz-adv-x="1177" d="M205 0v1434h31l706 -1368v1368h31v-1434h-31l-706 1368v-1368h-31z" />
<glyph unicode="O" d="M102 717q0 197 97.5 364.5t265 265t364.5 97.5t364.5 -97.5t265 -265t97.5 -364.5t-97.5 -364.5t-265 -265t-364.5 -97.5t-364.5 97.5t-265 265t-97.5 364.5zM133 717q0 -142 55.5 -271t148.5 -222.5t222 -148.5t270 -55t270 55t222.5 148.5t149 222.5t55.5 271 t-55.5 271t-149 222t-222.5 148t-270 55q-188 0 -348.5 -93t-254 -253.5t-93.5 -349.5z" />
<glyph unicode="P" horiz-adv-x="1075" d="M205 0v1434h338q125 0 231 -59.5t168 -161t62 -220.5t-62 -220.5t-168 -160.5t-231 -59h-307v-553h-31zM236 584h307q178 0 304 120t126 289t-126 289.5t-304 120.5h-307v-819z" />
<glyph unicode="Q" d="M102 717q0 197 97.5 364.5t265 265t364.5 97.5t364.5 -97.5t265 -265t97.5 -364.5t-97.5 -364.5t-265 -265t-364.5 -97.5t-364.5 97.5t-265 265t-97.5 364.5zM133 717q0 -142 55.5 -271t148.5 -222.5t222 -148.5t270 -55t270 55t222.5 148.5t149 222.5t55.5 271 t-55.5 271t-149 222t-222.5 148t-270 55q-188 0 -348.5 -93t-254 -253.5t-93.5 -349.5zM942 -248h614v-31h-614v31z" />
<glyph unicode="R" horiz-adv-x="1067" d="M205 0v1434h338q125 0 231 -59.5t168 -161t62 -220.5q0 -139 -84 -252t-218 -161l304 -580h-35l-297 571q-65 -18 -131 -18h-307v-553h-31zM236 584h307q178 0 304 120t126 289t-126 289.5t-304 120.5h-307v-819z" />
<glyph unicode="S" horiz-adv-x="942" d="M92 375h31q0 -146 101.5 -250.5t242.5 -104.5t241.5 102t100.5 243q0 82 -62 170t-163 151l-277 170q-70 42 -112.5 117t-42.5 153q0 131 93.5 224.5t223.5 93.5t223.5 -93.5t93.5 -224.5h-30q0 118 -84 202.5t-203 84.5t-203 -84.5t-84 -202.5q0 -69 38.5 -134 t101.5 -107l280 -174q107 -64 172.5 -160t65.5 -186q0 -156 -109.5 -265.5t-263.5 -109.5q-155 0 -265 113t-110 272z" />
<glyph unicode="T" horiz-adv-x="829" d="M41 1403v31h747v-31h-358v-1403h-31v1403h-358z" />
<glyph unicode="U" horiz-adv-x="1136" d="M184 373v1061h31v-1061q0 -146 104 -249.5t250 -103.5t249.5 103.5t103.5 249.5v1061h30v-1061q0 -158 -112.5 -270.5t-270.5 -112.5t-271.5 112.5t-113.5 270.5z" />
<glyph unicode="V" horiz-adv-x="909" d="M41 1434h33l381 -1375l381 1375h32l-397 -1434h-33z" />
<glyph unicode="W" horiz-adv-x="1509" d="M41 1434h33l360 -1371l311 1371h19l311 -1373l361 1373h32l-378 -1434h-33l-303 1333l-303 -1333h-33z" />
<glyph unicode="X" horiz-adv-x="946" d="M41 0l412 739l-390 695h35l375 -670l375 670h35l-389 -695l411 -739h-35l-397 713l-397 -713h-35z" />
<glyph unicode="Y" horiz-adv-x="929" d="M41 1434h35l389 -797l389 797h35l-408 -834v-600h-30v596z" />
<glyph unicode="Z" horiz-adv-x="931" d="M102 0v31l693 1372h-662v31h696v-31l-692 -1372h682v-31h-717z" />
<glyph unicode="[" horiz-adv-x="481" d="M205 -102v1638h235v-31h-204v-1577h204v-30h-235z" />
<glyph unicode="\" horiz-adv-x="620" d="M0 1526l29 10l592 -1628l-29 -10z" />
<glyph unicode="]" horiz-adv-x="481" d="M41 -72h205v1577h-205v31h235v-1638h-235v30z" />
<glyph unicode="^" horiz-adv-x="1064" d="M143 670l375 764h29l375 -766h-35l-355 723l-354 -721h-35z" />
<glyph unicode="_" horiz-adv-x="471" d="M0 -102h471v-31h-471v31z" />
<glyph unicode="`" horiz-adv-x="448" d="M102 1178l15 26l229 -110l-10 -19z" />
<glyph unicode="a" horiz-adv-x="909" d="M41 0l397 1434h33l397 -1434h-32l-86 311h-590l-86 -311h-33zM168 342h573l-286 1032z" />
<glyph unicode="b" horiz-adv-x="1013" d="M205 0v1434h215q155 0 256.5 -92t101.5 -226q0 -99 -61.5 -179t-161.5 -116q158 -28 262.5 -142t104.5 -263q0 -172 -133 -294t-322 -122h-262zM236 31h231q175 0 299.5 113.5t124.5 271.5t-124.5 270.5t-299.5 112.5h-231v-768zM236 829h184q135 0 231.5 84.5 t96.5 202.5q0 120 -93.5 203.5t-234.5 83.5h-184v-574z" />
<glyph unicode="c" horiz-adv-x="1431" d="M102 717q0 197 97.5 364.5t265 265t364.5 97.5q146 0 278 -55t232 -154l-24 -21q-95 94 -221 146.5t-265 52.5q-188 0 -348.5 -93t-254 -253.5t-93.5 -349.5q0 -142 55.5 -271t148.5 -222.5t222 -148.5t270 -55q138 0 264 52t222 145l22 -20q-101 -98 -231.5 -152.5 t-276.5 -54.5q-197 0 -364.5 97.5t-265 265t-97.5 364.5z" />
<glyph unicode="d" horiz-adv-x="1433" d="M205 0v1434h399q147 0 281.5 -57t232 -153t155.5 -229t58 -278q0 -193 -98 -358.5t-265.5 -262t-363.5 -96.5h-399zM236 31h368q141 0 270 54.5t222 146.5t148.5 219t55.5 266t-55 266t-148 219t-222 146.5t-271 54.5h-368v-1372z" />
<glyph unicode="e" horiz-adv-x="905" d="M205 0v1434h598v-31h-567v-778h485v-31h-485v-563h567v-31h-598z" />
<glyph unicode="f" horiz-adv-x="884" d="M205 0v1434h598v-31h-567v-778h485v-31h-485v-594h-31z" />
<glyph unicode="g" horiz-adv-x="1421" d="M102 717q0 197 97.5 364.5t265 265t364.5 97.5q146 0 278 -55t232 -154l-22 -21q-97 94 -223 146.5t-265 52.5q-188 0 -348.5 -93t-254 -253.5t-93.5 -349.5q0 -142 55.5 -271t148.5 -222.5t222 -148.5t270 -55q137 0 261 50t219 141v405h-418v31h448v-450 q-100 -98 -231.5 -152.5t-278.5 -54.5q-197 0 -364.5 97.5t-265 265t-97.5 364.5z" />
<glyph unicode="h" horiz-adv-x="1177" d="M205 0v1434h31v-809h706v809h31v-1434h-31v594h-706v-594h-31z" />
<glyph unicode="i" horiz-adv-x="440" d="M205 0v1434h31v-1434h-31z" />
<glyph unicode="j" horiz-adv-x="1054" d="M102 373h31q0 -146 104 -249.5t250 -103.5t249.5 103.5t103.5 249.5v1030h-451v31h481v-1061q0 -158 -112.5 -270.5t-270.5 -112.5q-103 0 -191.5 51.5t-140.5 139.5t-53 192z" />
<glyph unicode="k" horiz-adv-x="835" d="M205 0v1434h31v-1434h-31zM307 739l430 695h37l-430 -695l451 -739h-35z" />
<glyph unicode="l" horiz-adv-x="843" d="M205 0v1434h31v-1403h567v-31h-598z" />
<glyph unicode="m" horiz-adv-x="1402" d="M205 0v1434h31l466 -992l465 992h31v-1434h-31v1360l-454 -967h-21l-456 967v-1360h-31z" />
<glyph unicode="n" horiz-adv-x="1177" d="M205 0v1434h31l706 -1368v1368h31v-1434h-31l-706 1368v-1368h-31z" />
<glyph unicode="o" d="M102 717q0 197 97.5 364.5t265 265t364.5 97.5t364.5 -97.5t265 -265t97.5 -364.5t-97.5 -364.5t-265 -265t-364.5 -97.5t-364.5 97.5t-265 265t-97.5 364.5zM133 717q0 -142 55.5 -271t148.5 -222.5t222 -148.5t270 -55t270 55t222.5 148.5t149 222.5t55.5 271 t-55.5 271t-149 222t-222.5 148t-270 55q-188 0 -348.5 -93t-254 -253.5t-93.5 -349.5z" />
<glyph unicode="p" horiz-adv-x="1075" d="M205 0v1434h338q125 0 231 -59.5t168 -161t62 -220.5t-62 -220.5t-168 -160.5t-231 -59h-307v-553h-31zM236 584h307q178 0 304 120t126 289t-126 289.5t-304 120.5h-307v-819z" />
<glyph unicode="q" d="M102 717q0 197 97.5 364.5t265 265t364.5 97.5t364.5 -97.5t265 -265t97.5 -364.5t-97.5 -364.5t-265 -265t-364.5 -97.5t-364.5 97.5t-265 265t-97.5 364.5zM133 717q0 -142 55.5 -271t148.5 -222.5t222 -148.5t270 -55t270 55t222.5 148.5t149 222.5t55.5 271 t-55.5 271t-149 222t-222.5 148t-270 55q-188 0 -348.5 -93t-254 -253.5t-93.5 -349.5zM942 -248h614v-31h-614v31z" />
<glyph unicode="r" horiz-adv-x="1067" d="M205 0v1434h338q125 0 231 -59.5t168 -161t62 -220.5q0 -139 -84 -252t-218 -161l304 -580h-35l-297 571q-65 -18 -131 -18h-307v-553h-31zM236 584h307q178 0 304 120t126 289t-126 289.5t-304 120.5h-307v-819z" />
<glyph unicode="s" horiz-adv-x="942" d="M92 375h31q0 -146 101.5 -250.5t242.5 -104.5t241.5 102t100.5 243q0 82 -62 170t-163 151l-277 170q-70 42 -112.5 117t-42.5 153q0 131 93.5 224.5t223.5 93.5t223.5 -93.5t93.5 -224.5h-30q0 118 -84 202.5t-203 84.5t-203 -84.5t-84 -202.5q0 -69 38.5 -134 t101.5 -107l280 -174q107 -64 172.5 -160t65.5 -186q0 -156 -109.5 -265.5t-263.5 -109.5q-155 0 -265 113t-110 272z" />
<glyph unicode="t" horiz-adv-x="829" d="M41 1403v31h747v-31h-358v-1403h-31v1403h-358z" />
<glyph unicode="u" horiz-adv-x="1136" d="M184 373v1061h31v-1061q0 -146 104 -249.5t250 -103.5t249.5 103.5t103.5 249.5v1061h30v-1061q0 -158 -112.5 -270.5t-270.5 -112.5t-271.5 112.5t-113.5 270.5z" />
<glyph unicode="v" horiz-adv-x="909" d="M41 1434h33l381 -1375l381 1375h32l-397 -1434h-33z" />
<glyph unicode="w" horiz-adv-x="1509" d="M41 1434h33l360 -1371l311 1371h19l311 -1373l361 1373h32l-378 -1434h-33l-303 1333l-303 -1333h-33z" />
<glyph unicode="x" horiz-adv-x="946" d="M41 0l412 739l-390 695h35l375 -670l375 670h35l-389 -695l411 -739h-35l-397 713l-397 -713h-35z" />
<glyph unicode="y" horiz-adv-x="929" d="M41 1434h35l389 -797l389 797h35l-408 -834v-600h-30v596z" />
<glyph unicode="z" horiz-adv-x="931" d="M102 0v31l693 1372h-662v31h696v-31l-692 -1372h682v-31h-717z" />
<glyph unicode="{" horiz-adv-x="522" d="M82 700v31q76 0 130 54.5t54 129.5v416q0 89 63 152t152 63v-30q-76 0 -130 -54t-54 -131v-416q0 -67 -37 -121t-98 -79q61 -23 98 -77.5t37 -121.5v-414q0 -76 53.5 -130t130.5 -54v-31q-89 0 -152 63t-63 152v414q0 74 -53 127.5t-131 56.5z" />
<glyph unicode="|" horiz-adv-x="440" d="M205 -102v1638h31v-1638h-31z" />
<glyph unicode="}" horiz-adv-x="522" d="M41 -82q77 0 130.5 54t53.5 130v414q0 67 37 121.5t98 77.5q-61 25 -98 79t-37 121v416q0 77 -54 131t-130 54v30q89 0 152 -63t63 -152v-416q0 -75 54 -129.5t130 -54.5v-31q-78 -3 -131 -56.5t-53 -127.5v-414q0 -89 -63 -152t-152 -63v31z" />
<glyph unicode="~" horiz-adv-x="1064" d="M143 629q0 89 64 152t155 63q58 0 107.5 -31.5t77.5 -79.5q55 -94 158 -94q77 0 131.5 54t54.5 130h31q0 -89 -63 -152t-154 -63q-56 0 -104.5 29.5t-78.5 77.5q-27 45 -68.5 71.5t-91.5 26.5q-78 0 -133 -54t-55 -130h-31z" />
<glyph unicode="&#xa1;" horiz-adv-x="430" d="M164 1393q0 22 14.5 36.5t36.5 14.5t36.5 -14.5t14.5 -36.5t-14.5 -37t-36.5 -15t-36.5 15t-14.5 37zM199 0v1044h30v-1044h-30z" />
<glyph unicode="&#xa2;" horiz-adv-x="1236" d="M102 717q0 206 160 357t389 163v197h31v-195h6q106 0 237.5 -61.5t209.5 -147.5l-23 -20q-75 82 -199.5 140t-224.5 58q-150 0 -278 -66t-202.5 -179t-74.5 -246q0 -99 44 -190.5t118.5 -157.5t177.5 -105t215 -39q100 0 224.5 58t197.5 139l23 -21q-78 -86 -208.5 -146 t-236.5 -60h-6v-195h-31v197q-229 12 -389 163t-160 357z" />
<glyph unicode="&#xa3;" horiz-adv-x="1085" d="M82 0v31q101 0 173.5 78.5t72.5 187.5v354h-246v31h246v444q0 131 93.5 224.5t223.5 93.5q131 0 224.5 -94t93.5 -224h-31q0 118 -84 202.5t-203 84.5t-203 -84.5t-84 -202.5v-444h324v-31h-324v-354q0 -86 -42 -157t-111 -109h737v-31h-860z" />
<glyph unicode="&#xa4;" horiz-adv-x="1064" d="M164 373l119 119q-88 94 -88 225q0 132 90 229l-121 121l22 23l121 -123q94 88 225 88q132 0 226 -88l123 123l20 -21l-121 -121q90 -100 90 -231q0 -130 -88 -228l119 -118l-22 -23l-119 119q-94 -88 -228 -88q-132 0 -229 90l-117 -117zM225 717q0 -127 89.5 -217 t217.5 -90t218 90t90 217t-90 217t-218 90t-217.5 -90t-89.5 -217z" />
<glyph unicode="&#xa5;" horiz-adv-x="929" d="M41 1434h35l389 -797l389 797h35l-408 -834v-55h246v-33h-246v-184h246v-33h-246v-295h-30v295h-246v33h246v184h-246v33h246v51z" />
<glyph unicode="&#xa6;" horiz-adv-x="440" d="M205 -102v645h31v-645h-31zM205 891v645h31v-645h-31z" />
<glyph unicode="&#xa7;" horiz-adv-x="1046" d="M143 369h31q0 -143 103 -246t245 -103q144 0 246 103t102 246q0 94 -67 217q-36 -79 -111.5 -128.5t-167.5 -49.5q-126 0 -216.5 90t-90.5 217q0 54 19 106q-40 55 -65.5 121t-25.5 123q0 157 111 268t268 111t268 -111t111 -268h-31q0 145 -101.5 246.5t-246.5 101.5 q-143 0 -245.5 -102t-102.5 -246q0 -45 20.5 -104t53.5 -109q39 76 112.5 123t161.5 47q128 0 217.5 -90t89.5 -217q0 -49 -16 -99q37 -47 61.5 -118t24.5 -129q0 -157 -111 -268t-268 -111t-268 111t-111 268zM248 715q0 -114 81 -195.5t195 -81.5t195.5 81.5t81.5 195.5 t-81.5 195t-195.5 81t-195 -81t-81 -195z" />
<glyph unicode="&#xa8;" horiz-adv-x="573" d="M102 1116q0 17 12 29t29 12t29 -12t12 -29t-12 -29t-29 -12t-29 12t-12 29zM389 1116q0 17 12 29t29 12t29 -12t12 -29t-12 -29t-29 -12t-29 12t-12 29z" />
<glyph unicode="&#xa9;" d="M102 717q0 197 97.5 364.5t265 265t364.5 97.5t364.5 -97.5t265 -265t97.5 -364.5t-97.5 -364.5t-265 -265t-364.5 -97.5t-364.5 97.5t-265 265t-97.5 364.5zM133 717q0 -142 55.5 -271t148.5 -222.5t222 -148.5t270 -55t270 55t222.5 148.5t149 222.5t55.5 271 t-55.5 271t-149 222t-222.5 148t-270 55q-188 0 -348.5 -93t-254 -253.5t-93.5 -349.5zM479 717q0 151 107 257.5t258 106.5q145 0 254 -104l-25 -21q-98 95 -229 95q-138 0 -236 -98t-98 -236t98 -235t236 -97q134 0 229 92l25 -20q-108 -103 -254 -103q-151 0 -258 106 t-107 257z" />
<glyph unicode="&#xaa;" horiz-adv-x="483" d="M29 717l198 717h27l201 -717h-33l-41 145h-279l-41 -145h-32zM111 893h262l-131 473z" />
<glyph unicode="&#xab;" horiz-adv-x="776" d="M102 717l258 256l23 -21l-236 -235l236 -238l-23 -20zM352 717l258 256l23 -21l-236 -235l236 -238l-23 -20z" />
<glyph unicode="&#xac;" horiz-adv-x="1064" d="M143 786v31h779v-246h-31v215h-748z" />
<glyph unicode="&#xad;" horiz-adv-x="573" d="M143 705v30h287v-30h-287z" />
<glyph unicode="&#xae;" d="M102 717q0 197 97.5 364.5t265 265t364.5 97.5t364.5 -97.5t265 -265t97.5 -364.5t-97.5 -364.5t-265 -265t-364.5 -97.5t-364.5 97.5t-265 265t-97.5 364.5zM133 717q0 -142 55.5 -271t148.5 -222.5t222 -148.5t270 -55t270 55t222.5 148.5t149 222.5t55.5 271 t-55.5 271t-149 222t-222.5 148t-270 55q-188 0 -348.5 -93t-254 -253.5t-93.5 -349.5zM662 360v717h174q95 0 163 -65t68 -156q0 -67 -39.5 -122.5t-103.5 -82.5l145 -291h-35l-139 283q-24 -8 -59 -8h-144v-275h-30zM692 666h144q83 0 141.5 56t58.5 134t-58.5 134.5 t-141.5 56.5h-144v-381z" />
<glyph unicode="&#xaf;" horiz-adv-x="614" d="M102 1075v33h410v-33h-410z" />
<glyph unicode="&#xb0;" horiz-adv-x="532" d="M82 1260q0 76 54.5 130t129.5 54q77 0 131 -54t54 -130t-54.5 -130.5t-130.5 -54.5q-75 0 -129.5 54.5t-54.5 130.5zM111 1260q0 -63 45 -108.5t108 -45.5t108.5 45.5t45.5 108.5t-45.5 108t-108.5 45t-108 -45t-45 -108z" />
<glyph unicode="&#xb1;" horiz-adv-x="1064" d="M143 195v30h779v-30h-779zM143 809v31h375v372h31v-372h373v-31h-373v-375h-31v375h-375z" />
<glyph unicode="&#xb2;" horiz-adv-x="565" d="M70 717v18l309 344q78 88 78 162q0 69 -51 118.5t-123 49.5t-124.5 -56t-52.5 -132h-30q0 91 60.5 155t146.5 64q85 0 144.5 -58.5t59.5 -140.5q0 -84 -84 -180l-282 -313h375v-31h-426z" />
<glyph unicode="&#xb3;" horiz-adv-x="538" d="M39 940h31q0 -82 57 -139.5t139 -57.5t139.5 57.5t57.5 139.5q0 80 -58 137.5t-139 57.5q-16 0 -24 -2l-21 20l172 250h-293v31h338v-23l-172 -246q101 -3 164.5 -67.5t63.5 -157.5q0 -95 -67 -161t-161 -66t-160.5 66.5t-66.5 160.5z" />
<glyph unicode="&#xb4;" horiz-adv-x="448" d="M102 1094l230 110l14 -26l-233 -103z" />
<glyph unicode="&#xb6;" horiz-adv-x="1118" d="M143 1096q0 119 62 220.5t168 160.5t231 59h51v-1638h-30v757h-21q-125 0 -231 59.5t-168 161t-62 220.5zM850 -102v1638h31v-1638h-31z" />
<glyph unicode="&#xb7;" horiz-adv-x="389" d="M143 676q0 22 15 36.5t37 14.5t36.5 -14.5t14.5 -36.5t-14.5 -36.5t-36.5 -14.5t-37 14.5t-15 36.5z" />
<glyph unicode="&#xb8;" horiz-adv-x="296" d="M102 -338l62 256h31l-62 -256h-31z" />
<glyph unicode="&#xb9;" horiz-adv-x="368" d="M61 1350v32l162 52h13v-717h-31v680z" />
<glyph unicode="&#xba;" horiz-adv-x="845" d="M59 1075q0 151 107 258t258 107q150 0 256 -107t106 -258t-105.5 -256.5t-256.5 -105.5t-258 106t-107 256zM90 1075q0 -138 98 -235t236 -97q137 0 234.5 97t97.5 235t-97.5 236t-234.5 98q-138 0 -236 -98t-98 -236z" />
<glyph unicode="&#xbb;" horiz-adv-x="776" d="M143 479l236 238l-236 235l23 21l258 -256l-258 -258zM393 479l236 238l-236 235l23 21l258 -256l-258 -258z" />
<glyph unicode="&#xbc;" horiz-adv-x="1208" d="M61 1350v32l162 52h13v-717h-31v680zM125 -88l938 1624l27 -14l-938 -1624zM686 152v22l377 543h20v-535h60v-30h-60v-152h-30v152h-367zM729 182h324v467z" />
<glyph unicode="&#xbd;" horiz-adv-x="1357" d="M61 1350v32l162 52h13v-717h-31v680zM125 -88l938 1624l27 -14l-938 -1624zM862 0v18l309 344q78 88 78 162q0 69 -51 118.5t-123 49.5t-124 -55.5t-52 -132.5h-31q0 91 60.5 155t146.5 64q85 0 145 -58.5t60 -140.5q0 -84 -84 -180l-283 -313h375v-31h-426z" />
<glyph unicode="&#xbe;" horiz-adv-x="1288" d="M39 940h31q0 -82 57 -139.5t139 -57.5t139.5 57.5t57.5 139.5q0 80 -58 137.5t-139 57.5q-16 0 -24 -2l-21 20l172 250h-293v31h338v-23l-172 -246q101 -3 164.5 -67.5t63.5 -157.5q0 -95 -67 -161t-161 -66t-160.5 66.5t-66.5 160.5zM205 -88l938 1624l26 -14 l-938 -1624zM766 152v22l377 543h20v-535h60v-30h-60v-152h-30v152h-367zM809 182h324v467z" />
<glyph unicode="&#xbf;" horiz-adv-x="970" d="M82 395q0 158 110 272.5t267 120.5v256h30v-280l-14 -6q-149 0 -255.5 -107t-106.5 -256q0 -155 112.5 -265t270.5 -110t270.5 110t112.5 265h30q0 -167 -121.5 -286t-291.5 -119t-292 119t-122 286zM426 1393q0 22 14.5 36.5t36.5 14.5t36.5 -14.5t14.5 -36.5t-14.5 -37 t-36.5 -15t-36.5 15t-14.5 37z" />
<glyph unicode="&#xc0;" horiz-adv-x="909" d="M41 0l397 1434h33l397 -1434h-32l-86 311h-590l-86 -311h-33zM168 342h573l-286 1032zM332 1628l14 27l229 -111l-10 -18z" />
<glyph unicode="&#xc1;" horiz-adv-x="909" d="M41 0l397 1434h33l397 -1434h-32l-86 311h-590l-86 -311h-33zM168 342h573l-286 1032zM332 1544l229 111l14 -27l-233 -102z" />
<glyph unicode="&#xc2;" horiz-adv-x="909" d="M41 0l397 1434h33l397 -1434h-32l-86 311h-590l-86 -311h-33zM168 342h573l-286 1032zM225 1544l230 111l229 -111l-10 -18l-219 96l-219 -96z" />
<glyph unicode="&#xc3;" horiz-adv-x="909" d="M41 0l397 1434h33l397 -1434h-32l-86 311h-590l-86 -311h-33zM168 342h573l-286 1032zM244 1530q0 52 35 89.5t81 37.5q31 0 61.5 -16t45.5 -39q12 -19 35 -32.5t47 -13.5q34 0 60 29t26 68h31q0 -52 -35.5 -89.5t-81.5 -37.5q-30 0 -61 16.5t-46 38.5q-14 19 -36.5 32 t-45.5 13q-34 0 -60 -28.5t-26 -67.5h-30z" />
<glyph unicode="&#xc4;" horiz-adv-x="909" d="M41 0l397 1434h33l397 -1434h-32l-86 311h-590l-86 -311h-33zM168 342h573l-286 1032zM270 1567q0 17 12 29t29 12t29 -12t12 -29t-12 -29t-29 -12t-29 12t-12 29zM557 1567q0 17 12 29t29 12t29 -12t12 -29t-12 -29t-29 -12t-29 12t-12 29z" />
<glyph unicode="&#xc5;" horiz-adv-x="909" d="M41 0l397 1434h33l397 -1434h-32l-86 311h-590l-86 -311h-33zM168 342h573l-286 1032zM342 1638q0 46 33.5 79.5t79.5 33.5q47 0 79.5 -33.5t32.5 -79.5t-32.5 -79t-79.5 -33q-46 0 -79.5 33t-33.5 79zM373 1638q0 -34 24 -58t58 -24t58 24t24 58t-24 58t-58 24t-58 -24 t-24 -58z" />
<glyph unicode="&#xc6;" horiz-adv-x="1536" d="M41 0l795 1434h598v-31h-568v-778h486v-31h-486v-563h568v-31h-598v311h-588l-172 -311h-35zM266 342h570v1028z" />
<glyph unicode="&#xc7;" horiz-adv-x="1431" d="M102 717q0 197 97.5 364.5t265 265t364.5 97.5q146 0 278 -55t232 -154l-24 -21q-95 94 -221 146.5t-265 52.5q-188 0 -348.5 -93t-254 -253.5t-93.5 -349.5q0 -142 55.5 -271t148.5 -222.5t222 -148.5t270 -55q138 0 264 52t222 145l22 -20q-101 -98 -231.5 -152.5 t-276.5 -54.5q-197 0 -364.5 97.5t-265 265t-97.5 364.5zM711 -338l61 256h31l-62 -256h-30z" />
<glyph unicode="&#xc8;" horiz-adv-x="905" d="M205 0v1434h598v-31h-567v-778h485v-31h-485v-563h567v-31h-598zM371 1628l14 27l229 -111l-10 -18z" />
<glyph unicode="&#xc9;" horiz-adv-x="905" d="M205 0v1434h598v-31h-567v-778h485v-31h-485v-563h567v-31h-598zM371 1544l229 111l14 -27l-233 -102z" />
<glyph unicode="&#xca;" horiz-adv-x="905" d="M205 0v1434h598v-31h-567v-778h485v-31h-485v-563h567v-31h-598zM264 1544l230 111l229 -111l-10 -18l-219 96l-220 -96z" />
<glyph unicode="&#xcb;" horiz-adv-x="905" d="M205 0v1434h598v-31h-567v-778h485v-31h-485v-563h567v-31h-598zM309 1567q0 17 12 29t29 12t29 -12t12 -29t-12 -29t-29 -12t-29 12t-12 29zM596 1567q0 17 12 29t29 12t29 -12t12 -29t-12 -29t-29 -12t-29 12t-12 29z" />
<glyph unicode="&#xcc;" horiz-adv-x="440" d="M98 1628l15 27l229 -111l-10 -18zM205 0v1434h31v-1434h-31z" />
<glyph unicode="&#xcd;" horiz-adv-x="440" d="M98 1544l230 111l14 -27l-233 -102zM205 0v1434h31v-1434h-31z" />
<glyph unicode="&#xce;" horiz-adv-x="440" d="M-8 1544l229 111l230 -111l-11 -18l-219 96l-219 -96zM205 0v1434h31v-1434h-31z" />
<glyph unicode="&#xcf;" horiz-adv-x="440" d="M37 1567q0 17 12 29t29 12t29 -12t12 -29t-12 -29t-29 -12t-29 12t-12 29zM205 0v1434h31v-1434h-31zM324 1567q0 17 12 29t29 12t29 -12t12 -29t-12 -29t-29 -12t-29 12t-12 29z" />
<glyph unicode="&#xd0;" horiz-adv-x="1433" d="M61 700v31h144v703h399q147 0 281.5 -57t232 -153t155.5 -229t58 -278q0 -193 -98 -358.5t-265.5 -262t-363.5 -96.5h-399v700h-144zM236 31h368q141 0 270 54.5t222 146.5t148.5 219t55.5 266t-55 266t-148 219t-222 146.5t-271 54.5h-368v-672h407v-31h-407v-669z" />
<glyph unicode="&#xd1;" horiz-adv-x="1177" d="M205 0v1434h31l706 -1368v1368h31v-1434h-31l-706 1368v-1368h-31zM379 1530q0 52 35.5 89.5t81.5 37.5q31 0 61 -16t45 -39q12 -19 35 -32.5t47 -13.5q34 0 60 29t26 68h31q0 -52 -35.5 -89.5t-81.5 -37.5q-30 0 -60 16.5t-46 38.5q-14 19 -36.5 32t-45.5 13 q-34 0 -60 -28.5t-26 -67.5h-31z" />
<glyph unicode="&#xd2;" d="M102 717q0 197 97.5 364.5t265 265t364.5 97.5t364.5 -97.5t265 -265t97.5 -364.5t-97.5 -364.5t-265 -265t-364.5 -97.5t-364.5 97.5t-265 265t-97.5 364.5zM133 717q0 -142 55.5 -271t148.5 -222.5t222 -148.5t270 -55t270 55t222.5 148.5t149 222.5t55.5 271 t-55.5 271t-149 222t-222.5 148t-270 55q-188 0 -348.5 -93t-254 -253.5t-93.5 -349.5zM707 1628l14 27l229 -111l-10 -18z" />
<glyph unicode="&#xd3;" d="M102 717q0 197 97.5 364.5t265 265t364.5 97.5t364.5 -97.5t265 -265t97.5 -364.5t-97.5 -364.5t-265 -265t-364.5 -97.5t-364.5 97.5t-265 265t-97.5 364.5zM133 717q0 -142 55.5 -271t148.5 -222.5t222 -148.5t270 -55t270 55t222.5 148.5t149 222.5t55.5 271 t-55.5 271t-149 222t-222.5 148t-270 55q-188 0 -348.5 -93t-254 -253.5t-93.5 -349.5zM707 1544l229 111l14 -27l-233 -102z" />
<glyph unicode="&#xd4;" d="M102 717q0 197 97.5 364.5t265 265t364.5 97.5t364.5 -97.5t265 -265t97.5 -364.5t-97.5 -364.5t-265 -265t-364.5 -97.5t-364.5 97.5t-265 265t-97.5 364.5zM133 717q0 -142 55.5 -271t148.5 -222.5t222 -148.5t270 -55t270 55t222.5 148.5t149 222.5t55.5 271 t-55.5 271t-149 222t-222.5 148t-270 55q-188 0 -348.5 -93t-254 -253.5t-93.5 -349.5zM600 1544l229 111l230 -111l-10 -18l-220 96l-219 -96z" />
<glyph unicode="&#xd5;" d="M102 717q0 197 97.5 364.5t265 265t364.5 97.5t364.5 -97.5t265 -265t97.5 -364.5t-97.5 -364.5t-265 -265t-364.5 -97.5t-364.5 97.5t-265 265t-97.5 364.5zM133 717q0 -142 55.5 -271t148.5 -222.5t222 -148.5t270 -55t270 55t222.5 148.5t149 222.5t55.5 271 t-55.5 271t-149 222t-222.5 148t-270 55q-188 0 -348.5 -93t-254 -253.5t-93.5 -349.5zM618 1530q0 52 35.5 89.5t81.5 37.5q31 0 61.5 -16t45.5 -39q12 -19 35 -32.5t47 -13.5q34 0 60 29t26 68h30q0 -52 -35 -89.5t-81 -37.5q-30 0 -61 16.5t-46 38.5q-14 19 -36.5 32 t-45.5 13q-34 0 -60 -28.5t-26 -67.5h-31z" />
<glyph unicode="&#xd6;" d="M102 717q0 197 97.5 364.5t265 265t364.5 97.5t364.5 -97.5t265 -265t97.5 -364.5t-97.5 -364.5t-265 -265t-364.5 -97.5t-364.5 97.5t-265 265t-97.5 364.5zM133 717q0 -142 55.5 -271t148.5 -222.5t222 -148.5t270 -55t270 55t222.5 148.5t149 222.5t55.5 271 t-55.5 271t-149 222t-222.5 148t-270 55q-188 0 -348.5 -93t-254 -253.5t-93.5 -349.5zM645 1567q0 17 12 29t29 12t29 -12t12 -29t-12 -29t-29 -12t-29 12t-12 29zM932 1567q0 17 12 29t29 12t29 -12t12 -29t-12 -29t-29 -12t-29 12t-12 29z" />
<glyph unicode="&#xd7;" horiz-adv-x="1064" d="M143 356l367 365l-367 366l21 23l366 -369l369 367l23 -21l-369 -368l369 -369l-21 -22l-371 370l-362 -362z" />
<glyph unicode="&#xd8;" d="M102 717q0 197 97.5 364.5t265 265t364.5 97.5q120 0 232 -39l49 131l29 -10l-49 -131q207 -79 336.5 -264t129.5 -414q0 -197 -97.5 -364.5t-265 -265t-364.5 -97.5q-128 0 -235 39l-47 -131l-29 10l47 131q-206 81 -334.5 265.5t-128.5 412.5zM133 717 q0 -218 122.5 -394.5t319.5 -254.5l476 1308q-113 37 -222 37q-188 0 -348.5 -93t-254 -253.5t-93.5 -349.5zM604 57q107 -37 225 -37q141 0 270 55t222.5 148.5t149 222.5t55.5 271q0 218 -124.5 395.5t-322.5 253.5z" />
<glyph unicode="&#xd9;" horiz-adv-x="1136" d="M184 373v1061h31v-1061q0 -146 104 -249.5t250 -103.5t249.5 103.5t103.5 249.5v1061h30v-1061q0 -158 -112.5 -270.5t-270.5 -112.5t-271.5 112.5t-113.5 270.5zM446 1628l15 27l229 -111l-10 -18z" />
<glyph unicode="&#xda;" horiz-adv-x="1136" d="M184 373v1061h31v-1061q0 -146 104 -249.5t250 -103.5t249.5 103.5t103.5 249.5v1061h30v-1061q0 -158 -112.5 -270.5t-270.5 -112.5t-271.5 112.5t-113.5 270.5zM446 1544l230 111l14 -27l-233 -102z" />
<glyph unicode="&#xdb;" horiz-adv-x="1136" d="M184 373v1061h31v-1061q0 -146 104 -249.5t250 -103.5t249.5 103.5t103.5 249.5v1061h30v-1061q0 -158 -112.5 -270.5t-270.5 -112.5t-271.5 112.5t-113.5 270.5zM340 1544l229 111l230 -111l-11 -18l-219 96l-219 -96z" />
<glyph unicode="&#xdc;" horiz-adv-x="1136" d="M184 373v1061h31v-1061q0 -146 104 -249.5t250 -103.5t249.5 103.5t103.5 249.5v1061h30v-1061q0 -158 -112.5 -270.5t-270.5 -112.5t-271.5 112.5t-113.5 270.5zM385 1567q0 17 12 29t29 12t29 -12t12 -29t-12 -29t-29 -12t-29 12t-12 29zM672 1567q0 17 12 29t29 12 t29 -12t12 -29t-12 -29t-29 -12t-29 12t-12 29z" />
<glyph unicode="&#xdd;" horiz-adv-x="929" d="M41 1434h35l389 -797l389 797h35l-408 -834v-600h-30v596zM342 1544l229 111l15 -27l-234 -102z" />
<glyph unicode="&#xde;" horiz-adv-x="1064" d="M205 0v1434h31v-277h307q125 0 231 -59t168 -160.5t62 -220.5t-62 -220.5t-168 -161t-231 -59.5h-307v-276h-31zM236 307h307q178 0 304 120.5t126 289.5t-126 289t-304 120h-307v-819z" />
<glyph unicode="&#xdf;" horiz-adv-x="1187" d="M205 0v1059q0 155 113 265t272 110h387l-406 -553l277 -170q106 -66 171.5 -161.5t65.5 -184.5q0 -156 -109 -265.5t-263 -109.5q-155 0 -265 113t-110 272h31q0 -146 101.5 -250.5t242.5 -104.5t241.5 102t100.5 243q0 82 -62 170t-164 151l-301 186l387 531h-325 q-146 0 -250 -101.5t-104 -242.5v-1059h-31z" />
<glyph unicode="&#xe0;" horiz-adv-x="909" d="M41 0l397 1434h33l397 -1434h-32l-86 311h-590l-86 -311h-33zM168 342h573l-286 1032zM332 1628l14 27l229 -111l-10 -18z" />
<glyph unicode="&#xe1;" horiz-adv-x="909" d="M41 0l397 1434h33l397 -1434h-32l-86 311h-590l-86 -311h-33zM168 342h573l-286 1032zM332 1544l229 111l14 -27l-233 -102z" />
<glyph unicode="&#xe2;" horiz-adv-x="909" d="M41 0l397 1434h33l397 -1434h-32l-86 311h-590l-86 -311h-33zM168 342h573l-286 1032zM225 1544l230 111l229 -111l-10 -18l-219 96l-219 -96z" />
<glyph unicode="&#xe3;" horiz-adv-x="909" d="M41 0l397 1434h33l397 -1434h-32l-86 311h-590l-86 -311h-33zM168 342h573l-286 1032zM244 1530q0 52 35 89.5t81 37.5q31 0 61.5 -16t45.5 -39q12 -19 35 -32.5t47 -13.5q34 0 60 29t26 68h31q0 -52 -35.5 -89.5t-81.5 -37.5q-30 0 -61 16.5t-46 38.5q-14 19 -36.5 32 t-45.5 13q-34 0 -60 -28.5t-26 -67.5h-30z" />
<glyph unicode="&#xe4;" horiz-adv-x="909" d="M41 0l397 1434h33l397 -1434h-32l-86 311h-590l-86 -311h-33zM168 342h573l-286 1032zM270 1567q0 17 12 29t29 12t29 -12t12 -29t-12 -29t-29 -12t-29 12t-12 29zM557 1567q0 17 12 29t29 12t29 -12t12 -29t-12 -29t-29 -12t-29 12t-12 29z" />
<glyph unicode="&#xe5;" horiz-adv-x="909" d="M41 0l397 1434h33l397 -1434h-32l-86 311h-590l-86 -311h-33zM168 342h573l-286 1032zM342 1638q0 46 33.5 79.5t79.5 33.5q47 0 79.5 -33.5t32.5 -79.5t-32.5 -79t-79.5 -33q-46 0 -79.5 33t-33.5 79zM373 1638q0 -34 24 -58t58 -24t58 24t24 58t-24 58t-58 24t-58 -24 t-24 -58z" />
<glyph unicode="&#xe6;" horiz-adv-x="1536" d="M41 0l795 1434h598v-31h-568v-778h486v-31h-486v-563h568v-31h-598v311h-588l-172 -311h-35zM266 342h570v1028z" />
<glyph unicode="&#xe7;" horiz-adv-x="1431" d="M102 717q0 197 97.5 364.5t265 265t364.5 97.5q146 0 278 -55t232 -154l-24 -21q-95 94 -221 146.5t-265 52.5q-188 0 -348.5 -93t-254 -253.5t-93.5 -349.5q0 -142 55.5 -271t148.5 -222.5t222 -148.5t270 -55q138 0 264 52t222 145l22 -20q-101 -98 -231.5 -152.5 t-276.5 -54.5q-197 0 -364.5 97.5t-265 265t-97.5 364.5zM711 -338l61 256h31l-62 -256h-30z" />
<glyph unicode="&#xe8;" horiz-adv-x="905" d="M205 0v1434h598v-31h-567v-778h485v-31h-485v-563h567v-31h-598zM371 1628l14 27l229 -111l-10 -18z" />
<glyph unicode="&#xe9;" horiz-adv-x="905" d="M205 0v1434h598v-31h-567v-778h485v-31h-485v-563h567v-31h-598zM371 1544l229 111l14 -27l-233 -102z" />
<glyph unicode="&#xea;" horiz-adv-x="905" d="M205 0v1434h598v-31h-567v-778h485v-31h-485v-563h567v-31h-598zM264 1544l230 111l229 -111l-10 -18l-219 96l-220 -96z" />
<glyph unicode="&#xeb;" horiz-adv-x="905" d="M205 0v1434h598v-31h-567v-778h485v-31h-485v-563h567v-31h-598zM309 1567q0 17 12 29t29 12t29 -12t12 -29t-12 -29t-29 -12t-29 12t-12 29zM596 1567q0 17 12 29t29 12t29 -12t12 -29t-12 -29t-29 -12t-29 12t-12 29z" />
<glyph unicode="&#xec;" horiz-adv-x="440" d="M98 1628l15 27l229 -111l-10 -18zM205 0v1434h31v-1434h-31z" />
<glyph unicode="&#xed;" horiz-adv-x="440" d="M98 1544l230 111l14 -27l-233 -102zM205 0v1434h31v-1434h-31z" />
<glyph unicode="&#xee;" horiz-adv-x="440" d="M-8 1544l229 111l230 -111l-11 -18l-219 96l-219 -96zM205 0v1434h31v-1434h-31z" />
<glyph unicode="&#xef;" horiz-adv-x="440" d="M37 1567q0 17 12 29t29 12t29 -12t12 -29t-12 -29t-29 -12t-29 12t-12 29zM205 0v1434h31v-1434h-31zM324 1567q0 17 12 29t29 12t29 -12t12 -29t-12 -29t-29 -12t-29 12t-12 29z" />
<glyph unicode="&#xf0;" horiz-adv-x="1433" d="M61 700v31h144v703h399q147 0 281.5 -57t232 -153t155.5 -229t58 -278q0 -193 -98 -358.5t-265.5 -262t-363.5 -96.5h-399v700h-144zM236 31h368q141 0 270 54.5t222 146.5t148.5 219t55.5 266t-55 266t-148 219t-222 146.5t-271 54.5h-368v-672h407v-31h-407v-669z" />
<glyph unicode="&#xf1;" horiz-adv-x="1177" d="M205 0v1434h31l706 -1368v1368h31v-1434h-31l-706 1368v-1368h-31zM379 1530q0 52 35.5 89.5t81.5 37.5q31 0 61 -16t45 -39q12 -19 35 -32.5t47 -13.5q34 0 60 29t26 68h31q0 -52 -35.5 -89.5t-81.5 -37.5q-30 0 -60 16.5t-46 38.5q-14 19 -36.5 32t-45.5 13 q-34 0 -60 -28.5t-26 -67.5h-31z" />
<glyph unicode="&#xf2;" d="M102 717q0 197 97.5 364.5t265 265t364.5 97.5t364.5 -97.5t265 -265t97.5 -364.5t-97.5 -364.5t-265 -265t-364.5 -97.5t-364.5 97.5t-265 265t-97.5 364.5zM133 717q0 -142 55.5 -271t148.5 -222.5t222 -148.5t270 -55t270 55t222.5 148.5t149 222.5t55.5 271 t-55.5 271t-149 222t-222.5 148t-270 55q-188 0 -348.5 -93t-254 -253.5t-93.5 -349.5zM707 1628l14 27l229 -111l-10 -18z" />
<glyph unicode="&#xf3;" d="M102 717q0 197 97.5 364.5t265 265t364.5 97.5t364.5 -97.5t265 -265t97.5 -364.5t-97.5 -364.5t-265 -265t-364.5 -97.5t-364.5 97.5t-265 265t-97.5 364.5zM133 717q0 -142 55.5 -271t148.5 -222.5t222 -148.5t270 -55t270 55t222.5 148.5t149 222.5t55.5 271 t-55.5 271t-149 222t-222.5 148t-270 55q-188 0 -348.5 -93t-254 -253.5t-93.5 -349.5zM707 1544l229 111l14 -27l-233 -102z" />
<glyph unicode="&#xf4;" d="M102 717q0 197 97.5 364.5t265 265t364.5 97.5t364.5 -97.5t265 -265t97.5 -364.5t-97.5 -364.5t-265 -265t-364.5 -97.5t-364.5 97.5t-265 265t-97.5 364.5zM133 717q0 -142 55.5 -271t148.5 -222.5t222 -148.5t270 -55t270 55t222.5 148.5t149 222.5t55.5 271 t-55.5 271t-149 222t-222.5 148t-270 55q-188 0 -348.5 -93t-254 -253.5t-93.5 -349.5zM600 1544l229 111l230 -111l-10 -18l-220 96l-219 -96z" />
<glyph unicode="&#xf5;" d="M102 717q0 197 97.5 364.5t265 265t364.5 97.5t364.5 -97.5t265 -265t97.5 -364.5t-97.5 -364.5t-265 -265t-364.5 -97.5t-364.5 97.5t-265 265t-97.5 364.5zM133 717q0 -142 55.5 -271t148.5 -222.5t222 -148.5t270 -55t270 55t222.5 148.5t149 222.5t55.5 271 t-55.5 271t-149 222t-222.5 148t-270 55q-188 0 -348.5 -93t-254 -253.5t-93.5 -349.5zM618 1530q0 52 35.5 89.5t81.5 37.5q31 0 61.5 -16t45.5 -39q12 -19 35 -32.5t47 -13.5q34 0 60 29t26 68h30q0 -52 -35 -89.5t-81 -37.5q-30 0 -61 16.5t-46 38.5q-14 19 -36.5 32 t-45.5 13q-34 0 -60 -28.5t-26 -67.5h-31z" />
<glyph unicode="&#xf6;" d="M102 717q0 197 97.5 364.5t265 265t364.5 97.5t364.5 -97.5t265 -265t97.5 -364.5t-97.5 -364.5t-265 -265t-364.5 -97.5t-364.5 97.5t-265 265t-97.5 364.5zM133 717q0 -142 55.5 -271t148.5 -222.5t222 -148.5t270 -55t270 55t222.5 148.5t149 222.5t55.5 271 t-55.5 271t-149 222t-222.5 148t-270 55q-188 0 -348.5 -93t-254 -253.5t-93.5 -349.5zM645 1567q0 17 12 29t29 12t29 -12t12 -29t-12 -29t-29 -12t-29 12t-12 29zM932 1567q0 17 12 29t29 12t29 -12t12 -29t-12 -29t-29 -12t-29 12t-12 29z" />
<glyph unicode="&#xf7;" horiz-adv-x="1064" d="M143 705v30h779v-30h-779zM481 346q0 22 14.5 36.5t36.5 14.5t37 -14.5t15 -36.5t-15 -36.5t-37 -14.5t-36.5 14.5t-14.5 36.5zM481 1094q0 22 14.5 36.5t36.5 14.5t37 -14.5t15 -36.5t-15 -37t-37 -15t-36.5 15t-14.5 37z" />
<glyph unicode="&#xf8;" d="M102 717q0 197 97.5 364.5t265 265t364.5 97.5q121 0 236 -39l47 131l29 -10l-49 -133q206 -79 335 -263.5t129 -412.5q0 -197 -97.5 -364.5t-265 -265t-364.5 -97.5q-123 0 -233 37l-47 -129l-29 10l47 131q-207 79 -336 264t-129 414zM133 717q0 -220 123.5 -396.5 t321.5 -252.5l475 1306q-109 39 -224 39q-188 0 -348.5 -93t-254 -253.5t-93.5 -349.5zM606 57q104 -37 223 -37q141 0 270 55t222.5 148.5t149 222.5t55.5 271q0 218 -123.5 394.5t-321.5 252.5z" />
<glyph unicode="&#xf9;" horiz-adv-x="1136" d="M184 373v1061h31v-1061q0 -146 104 -249.5t250 -103.5t249.5 103.5t103.5 249.5v1061h30v-1061q0 -158 -112.5 -270.5t-270.5 -112.5t-271.5 112.5t-113.5 270.5zM446 1628l15 27l229 -111l-10 -18z" />
<glyph unicode="&#xfa;" horiz-adv-x="1136" d="M184 373v1061h31v-1061q0 -146 104 -249.5t250 -103.5t249.5 103.5t103.5 249.5v1061h30v-1061q0 -158 -112.5 -270.5t-270.5 -112.5t-271.5 112.5t-113.5 270.5zM446 1544l230 111l14 -27l-233 -102z" />
<glyph unicode="&#xfb;" horiz-adv-x="1136" d="M184 373v1061h31v-1061q0 -146 104 -249.5t250 -103.5t249.5 103.5t103.5 249.5v1061h30v-1061q0 -158 -112.5 -270.5t-270.5 -112.5t-271.5 112.5t-113.5 270.5zM340 1544l229 111l230 -111l-11 -18l-219 96l-219 -96z" />
<glyph unicode="&#xfc;" horiz-adv-x="1136" d="M184 373v1061h31v-1061q0 -146 104 -249.5t250 -103.5t249.5 103.5t103.5 249.5v1061h30v-1061q0 -158 -112.5 -270.5t-270.5 -112.5t-271.5 112.5t-113.5 270.5zM385 1567q0 17 12 29t29 12t29 -12t12 -29t-12 -29t-29 -12t-29 12t-12 29zM672 1567q0 17 12 29t29 12 t29 -12t12 -29t-12 -29t-29 -12t-29 12t-12 29z" />
<glyph unicode="&#xfd;" horiz-adv-x="929" d="M41 1434h35l389 -797l389 797h35l-408 -834v-600h-30v596zM342 1544l229 111l15 -27l-234 -102z" />
<glyph unicode="&#xfe;" horiz-adv-x="1064" d="M205 0v1434h31v-277h307q125 0 231 -59t168 -160.5t62 -220.5t-62 -220.5t-168 -161t-231 -59.5h-307v-276h-31zM236 307h307q178 0 304 120.5t126 289.5t-126 289t-304 120h-307v-819z" />
<glyph unicode="&#xff;" horiz-adv-x="929" d="M41 1434h35l389 -797l389 797h35l-408 -834v-600h-30v596zM281 1567q0 17 12 29t29 12t28.5 -12t11.5 -29t-11.5 -29t-28.5 -12t-29 12t-12 29zM567 1567q0 17 12 29t29 12t29 -12t12 -29t-12 -29t-29 -12t-29 12t-12 29z" />
<glyph unicode="&#x152;" horiz-adv-x="1519" d="M102 717q0 144 56.5 275.5t152.5 227.5t229 154t279 60h598v-31h-567v-778h485v-31h-485v-563h567v-31h-598q-146 2 -279 60t-229 154t-152.5 227.5t-56.5 275.5zM133 717q0 -184 92 -341t249.5 -249.5t344.5 -95.5v1372q-187 -3 -344.5 -95.5t-249.5 -249.5t-92 -341z " />
<glyph unicode="&#x153;" horiz-adv-x="1519" d="M102 717q0 144 56.5 275.5t152.5 227.5t229 154t279 60h598v-31h-567v-778h485v-31h-485v-563h567v-31h-598q-146 2 -279 60t-229 154t-152.5 227.5t-56.5 275.5zM133 717q0 -184 92 -341t249.5 -249.5t344.5 -95.5v1372q-187 -3 -344.5 -95.5t-249.5 -249.5t-92 -341z " />
<glyph unicode="&#x178;" horiz-adv-x="929" d="M41 1434h35l389 -797l389 797h35l-408 -834v-600h-30v596zM281 1567q0 17 12 29t29 12t28.5 -12t11.5 -29t-11.5 -29t-28.5 -12t-29 12t-12 29zM567 1567q0 17 12 29t29 12t29 -12t12 -29t-12 -29t-29 -12t-29 12t-12 29z" />
<glyph unicode="&#x2c6;" horiz-adv-x="663" d="M102 1094l230 110l229 -110l-10 -19l-219 96l-219 -96z" />
<glyph unicode="&#x2dc;" horiz-adv-x="626" d="M102 1079q0 52 35.5 89.5t81.5 37.5q31 0 61.5 -16t45.5 -39q12 -19 35 -32t47 -13q34 0 60 28.5t26 67.5h30q0 -52 -35 -89.5t-81 -37.5q-30 0 -61 16.5t-46 38.5q-14 20 -37 33t-45 13q-34 0 -60 -29t-26 -68h-31z" />
<glyph unicode="&#x2000;" horiz-adv-x="875" />
<glyph unicode="&#x2001;" horiz-adv-x="1751" />
<glyph unicode="&#x2002;" horiz-adv-x="875" />
<glyph unicode="&#x2003;" horiz-adv-x="1751" />
<glyph unicode="&#x2004;" horiz-adv-x="583" />
<glyph unicode="&#x2005;" horiz-adv-x="437" />
<glyph unicode="&#x2006;" horiz-adv-x="291" />
<glyph unicode="&#x2007;" horiz-adv-x="291" />
<glyph unicode="&#x2008;" horiz-adv-x="218" />
<glyph unicode="&#x2009;" horiz-adv-x="350" />
<glyph unicode="&#x200a;" horiz-adv-x="97" />
<glyph unicode="&#x2010;" horiz-adv-x="573" d="M143 705v30h287v-30h-287z" />
<glyph unicode="&#x2011;" horiz-adv-x="573" d="M143 705v30h287v-30h-287z" />
<glyph unicode="&#x2012;" horiz-adv-x="573" d="M143 705v30h287v-30h-287z" />
<glyph unicode="&#x2013;" horiz-adv-x="1024" d="M143 705v30h738v-30h-738z" />
<glyph unicode="&#x2014;" horiz-adv-x="1638" d="M143 705v30h1352v-30h-1352z" />
<glyph unicode="&#x2018;" horiz-adv-x="389" d="M143 1288q0 9 4 21v2l64 133h33l-47 -105q20 0 34.5 -14.5t14.5 -36.5t-14.5 -36.5t-36.5 -14.5t-37 14.5t-15 36.5z" />
<glyph unicode="&#x2019;" horiz-adv-x="389" d="M143 1393q0 22 15 36.5t37 14.5t36.5 -14.5t14.5 -36.5q0 -9 -4 -21v-2l-64 -133h-33l48 104q-20 0 -35 15t-15 37z" />
<glyph unicode="&#x201a;" horiz-adv-x="389" d="M143 41q0 22 15 36.5t37 14.5t36.5 -14.5t14.5 -36.5q0 -9 -4 -21v-2l-64 -133h-33l48 105q-21 0 -35.5 15t-14.5 36z" />
<glyph unicode="&#x201c;" horiz-adv-x="573" d="M143 1288q0 9 4 21v2l64 133h33l-47 -105q20 0 34.5 -14.5t14.5 -36.5t-14.5 -36.5t-36.5 -14.5t-37 14.5t-15 36.5zM328 1288q0 9 4 21v2l63 133h33l-47 -105q20 0 34.5 -14.5t14.5 -36.5t-14.5 -36.5t-36.5 -14.5t-36.5 14.5t-14.5 36.5z" />
<glyph unicode="&#x201d;" horiz-adv-x="573" d="M143 1393q0 22 15 36.5t37 14.5t36.5 -14.5t14.5 -36.5q0 -9 -4 -21v-2l-64 -133h-33l48 104q-20 0 -35 15t-15 37zM328 1393q0 22 14.5 36.5t36.5 14.5t36.5 -14.5t14.5 -36.5q0 -9 -4 -21v-2l-64 -133h-32l47 104q-20 0 -34.5 15t-14.5 37z" />
<glyph unicode="&#x201e;" horiz-adv-x="573" d="M143 41q0 22 15 36.5t37 14.5t36.5 -14.5t14.5 -36.5q0 -9 -4 -21v-2l-64 -133h-33l48 105q-21 0 -35.5 15t-14.5 36zM328 41q0 22 14.5 36.5t36.5 14.5t36.5 -14.5t14.5 -36.5q0 -9 -4 -21v-2l-64 -133h-32l47 105q-20 0 -34.5 14.5t-14.5 36.5z" />
<glyph unicode="&#x2022;" horiz-adv-x="565" d="M143 717q0 58 40.5 98.5t99.5 40.5t99 -40t40 -99t-40 -99t-99 -40t-99.5 40.5t-40.5 98.5z" />
<glyph unicode="&#x2026;" horiz-adv-x="1167" d="M143 41q0 22 15 36.5t37 14.5t36.5 -14.5t14.5 -36.5t-14.5 -36.5t-36.5 -14.5t-37 14.5t-15 36.5zM532 41q0 22 15 36.5t37 14.5t36.5 -14.5t14.5 -36.5t-14.5 -36.5t-36.5 -14.5t-37 14.5t-15 36.5zM922 41q0 22 14.5 36.5t36.5 14.5t36.5 -14.5t14.5 -36.5 t-14.5 -36.5t-36.5 -14.5t-36.5 14.5t-14.5 36.5z" />
<glyph unicode="&#x202f;" horiz-adv-x="350" />
<glyph unicode="&#x2039;" horiz-adv-x="526" d="M102 717l258 256l23 -21l-236 -235l236 -238l-23 -20z" />
<glyph unicode="&#x203a;" horiz-adv-x="526" d="M143 479l236 238l-236 235l23 21l258 -256l-258 -258z" />
<glyph unicode="&#x205f;" horiz-adv-x="437" />
<glyph unicode="&#x20ac;" horiz-adv-x="1546" d="M41 561v33h176q-10 68 -10 123t10 123h-176v32h182q36 163 137.5 293t252 204.5t321.5 74.5q146 0 278 -55t232 -154l-25 -21q-96 94 -221 146.5t-264 52.5q-245 0 -435 -153.5t-243 -387.5h674v-32h-682q-10 -65 -10 -123t10 -123h682v-33h-674q53 -234 243 -387.5 t435 -153.5q138 0 263.5 52t221.5 145l23 -20q-101 -98 -231.5 -152.5t-276.5 -54.5q-171 0 -321.5 74t-252 204t-137.5 293h-182z" />
<glyph unicode="&#x2122;" horiz-adv-x="1138" d="M29 1403v31h377v-31h-175v-686h-30v686h-172zM537 717v717h26l223 -478l224 478h26v-717h-30v635l-209 -445h-21l-209 445v-635h-30z" />
<glyph unicode="&#x25fc;" horiz-adv-x="1433" d="M0 0v1434h1434v-1434h-1434z" />
<glyph unicode="&#xfb01;" horiz-adv-x="1325" d="M205 0v1434h598v-31h-567v-778h485v-31h-485v-594h-31zM1090 0v1434h30v-1434h-30z" />
<glyph unicode="&#xfb02;" horiz-adv-x="1728" d="M205 0v1434h598v-31h-567v-778h485v-31h-485v-594h-31zM1090 0v1434h30v-1403h568v-31h-598z" />
</font>
</defs>
</svg>
